<svg width="21" height="11" viewBox="0 0 21 11" fill="none" xmlns="http://www.w3.org/2000/svg">
<path d="M21 0.932813C21.0002 0.748359 20.9431 0.568007 20.836 0.414594C20.729 0.261179 20.5767 0.141599 20.3986 0.0709906C20.2204 0.000383377 20.0244 -0.018075 19.8352 0.0179501C19.6461 0.0539751 19.4724 0.142865 19.3361 0.273367L10.4758 8.7483L1.61557 0.273367C1.42915 0.117592 1.18774 0.0355148 0.940356 0.0438013C0.69297 0.0520878 0.458154 0.150117 0.283584 0.317985C0.109015 0.485851 0.00777833 0.710973 0.000429892 0.94764C-0.00691855 1.18431 0.0801721 1.41478 0.244019 1.59226L9.79372 10.7266C9.88422 10.8133 9.99169 10.882 10.11 10.929C10.2283 10.9759 10.3551 11 10.4831 11C10.6112 11 10.738 10.9759 10.8563 10.929C10.9746 10.882 11.0821 10.8133 11.1726 10.7266L20.7077 1.59226C20.7994 1.50621 20.8725 1.40365 20.9227 1.29047C20.9729 1.17729 20.9991 1.05574 21 0.932813Z" fill="#DB0007"/>
</svg>
