<svg width="21" height="11" viewBox="0 0 21 11" fill="none" xmlns="http://www.w3.org/2000/svg">
<path d="M21 10.0672C21.0002 10.2516 20.9431 10.432 20.836 10.5854C20.729 10.7388 20.5767 10.8584 20.3986 10.929C20.2204 10.9996 20.0244 11.0181 19.8352 10.982C19.6461 10.946 19.4724 10.8571 19.3361 10.7266L10.4758 2.2517L1.61557 10.7266C1.42915 10.8824 1.18774 10.9645 0.940356 10.9562C0.69297 10.9479 0.458154 10.8499 0.283584 10.682C0.109015 10.5141 0.00777833 10.289 0.000429892 10.0524C-0.00691855 9.81569 0.0801721 9.58522 0.244019 9.40774L9.79372 0.273366C9.88422 0.186705 9.99169 0.117956 10.11 0.0710498C10.2283 0.0241435 10.3551 0 10.4831 0C10.6112 0 10.738 0.0241435 10.8563 0.0710498C10.9746 0.117956 11.0821 0.186705 11.1726 0.273366L20.7077 9.40774C20.7994 9.49379 20.8725 9.59635 20.9227 9.70953C20.9729 9.82271 20.9991 9.94426 21 10.0672Z" fill="#15CA27"/>
</svg>
