<svg width="126" height="98" viewBox="0 0 126 98" fill="none" xmlns="http://www.w3.org/2000/svg">
<path d="M9.46715 95.9206C10.254 97.2224 11.6143 98.009 13.0706 98.009H42.8571C49.947 98.009 55.7143 91.8863 55.7143 84.3594V52.5103C55.7143 44.9835 49.947 38.8607 42.8571 38.8607H34.3483C38.3284 26.6238 41.727 20.7636 53.0357 15.7606C54.9231 14.9252 55.9907 12.7927 55.5887 10.6642C55.1871 8.53991 53.4291 7.01161 51.3866 7.01161H51.378C27.7856 7.05621 14.2337 17.0978 4.62429 41.642C1.55701 49.3513 0 57.6021 0 66.1599C0 79.3209 3.75 86.4878 9.46715 95.9206ZM77.3563 98.009H107.143C114.233 98.009 120 91.8863 120 84.3594V52.5103C120 44.9835 114.233 38.8607 107.143 38.8607H98.634C102.614 26.6238 106.013 20.7636 117.321 15.7606C119.209 14.9252 120.276 12.7927 119.874 10.6642C119.473 8.53991 117.715 7.01161 115.672 7.01161H115.664C92.0713 7.05621 78.5194 17.0978 68.91 41.642C65.8427 49.3513 64.2857 57.6021 64.2857 66.1599C64.2857 79.3209 68.0357 86.4878 73.7529 95.9206C74.5397 97.2224 75.9 98.009 77.3563 98.009Z" fill="#D1D3D8"/>
<path d="M15.4671 89.2117C16.254 90.5134 17.6143 91.3 19.0706 91.3H48.8571C55.947 91.3 61.7143 85.1773 61.7143 77.6504V45.8013C61.7143 38.2745 55.947 32.1517 48.8571 32.1517H40.3483C44.3284 19.9148 47.727 14.0546 59.0357 9.05157C60.9231 8.21622 61.9907 6.08369 61.5887 3.95526C61.1871 1.83092 59.4291 0.302628 57.3866 0.302628H57.378C33.7856 0.347221 20.2337 10.3888 10.6243 34.9331C7.55701 42.6424 6 50.8931 6 59.451C6 72.6119 9.75 79.7789 15.4671 89.2117ZM83.3563 91.3H113.143C120.233 91.3 126 85.1773 126 77.6504V45.8013C126 38.2745 120.233 32.1517 113.143 32.1517H104.634C108.614 19.9148 112.013 14.0546 123.321 9.05157C125.209 8.21622 126.276 6.08369 125.874 3.95526C125.473 1.83092 123.715 0.302628 121.672 0.302628H121.664C98.0713 0.347221 84.5194 10.3888 74.91 34.9331C71.8427 42.6424 70.2857 50.8931 70.2857 59.451C70.2857 72.6119 74.0357 79.7789 79.7529 89.2117C80.5397 90.5134 81.9 91.3 83.3563 91.3Z" fill="#E5AA42"/>
</svg>
