<svg width="612" height="422" viewBox="0 0 612 422" fill="none" xmlns="http://www.w3.org/2000/svg">
<rect y="13" width="596" height="409" rx="8" fill="#D3D5DA"/>
<rect x="16" width="596" height="409" rx="8" fill="#6DB7C0"/>
<circle cx="303.5" cy="204.5" r="69.5" fill="#0C1017"/>
<path d="M340.17 205.341L286.023 236.261L286.319 173.908L340.17 205.341Z" fill="#6DB7C0"/>
<path d="M59.2955 357.364V369H57.8864V358.841H57.8182L54.9773 360.727V359.295L57.8864 357.364H59.2955ZM63.642 367.511C63.3617 367.511 63.1212 367.411 62.9205 367.21C62.7197 367.009 62.6193 366.769 62.6193 366.489C62.6193 366.208 62.7197 365.968 62.9205 365.767C63.1212 365.566 63.3617 365.466 63.642 365.466C63.9223 365.466 64.1629 365.566 64.3636 365.767C64.5644 365.968 64.6648 366.208 64.6648 366.489C64.6648 366.674 64.6174 366.845 64.5227 367C64.4318 367.155 64.3087 367.28 64.1534 367.375C64.0019 367.466 63.8314 367.511 63.642 367.511ZM63.642 361.625C63.3617 361.625 63.1212 361.525 62.9205 361.324C62.7197 361.123 62.6193 360.883 62.6193 360.602C62.6193 360.322 62.7197 360.081 62.9205 359.881C63.1212 359.68 63.3617 359.58 63.642 359.58C63.9223 359.58 64.1629 359.68 64.3636 359.881C64.5644 360.081 64.6648 360.322 64.6648 360.602C64.6648 360.788 64.6174 360.958 64.5227 361.114C64.4318 361.269 64.3087 361.394 64.1534 361.489C64.0019 361.58 63.8314 361.625 63.642 361.625ZM71.1392 357.364V369H69.7301V358.841H69.6619L66.821 360.727V359.295L69.7301 357.364H71.1392ZM78.1222 369.159C77.4555 369.159 76.8551 369.027 76.321 368.761C75.7869 368.496 75.3589 368.133 75.0369 367.67C74.715 367.208 74.5388 366.682 74.5085 366.091H75.8722C75.9252 366.617 76.1638 367.053 76.5881 367.398C77.0161 367.739 77.5275 367.909 78.1222 367.909C78.5994 367.909 79.0237 367.797 79.3949 367.574C79.7699 367.35 80.0634 367.044 80.2756 366.653C80.4915 366.259 80.5994 365.814 80.5994 365.318C80.5994 364.811 80.4877 364.358 80.2642 363.96C80.0445 363.559 79.7415 363.242 79.3551 363.011C78.9688 362.78 78.5275 362.663 78.0312 362.659C77.6752 362.655 77.3097 362.71 76.9347 362.824C76.5597 362.934 76.2509 363.076 76.0085 363.25L74.6903 363.091L75.3949 357.364H81.4403V358.614H76.5767L76.1676 362.045H76.2358C76.4744 361.856 76.7737 361.699 77.1335 361.574C77.4934 361.449 77.8684 361.386 78.2585 361.386C78.9706 361.386 79.6051 361.557 80.1619 361.898C80.7225 362.235 81.1619 362.697 81.4801 363.284C81.8021 363.871 81.9631 364.542 81.9631 365.295C81.9631 366.038 81.7964 366.701 81.4631 367.284C81.1335 367.864 80.679 368.322 80.0994 368.659C79.5199 368.992 78.8608 369.159 78.1222 369.159Z" fill="white"/>
<rect x="36" y="378" width="557" height="6" rx="3" fill="white"/>
<circle cx="69" cy="381" r="6" fill="#0C1017"/>
<circle cx="69" cy="381" r="4" fill="#A6A5A5"/>
</svg>
