<svg width="48" height="46" viewBox="0 0 48 46" fill="none" xmlns="http://www.w3.org/2000/svg">
<path d="M31.5 22.9618C31.5 24.8649 30.7098 26.6901 29.3033 28.0357C27.8968 29.3814 25.9891 30.1374 24 30.1374C22.0109 30.1374 20.1032 29.3814 18.6967 28.0357C17.2902 26.6901 16.5 24.8649 16.5 22.9618C16.5 22.5528 16.545 22.1534 16.6225 21.7659H14V31.3262C14 31.9911 14.5625 32.5293 15.2575 32.5293H32.745C33.078 32.5286 33.3973 32.4016 33.6325 32.1761C33.8678 31.9505 34 31.6448 34 31.3262V21.7659H31.3775C31.455 22.1534 31.5 22.5528 31.5 22.9618ZM24 27.7456C24.6568 27.7454 25.3071 27.6215 25.9138 27.3809C26.5205 27.1403 27.0717 26.7877 27.536 26.3432C28.0003 25.8988 28.3686 25.3712 28.6198 24.7906C28.8709 24.2101 29.0001 23.5878 29 22.9594C28.9998 22.3311 28.8703 21.7089 28.6188 21.1284C28.3673 20.548 27.9988 20.0206 27.5343 19.5764C27.0697 19.1321 26.5183 18.7798 25.9115 18.5395C25.3046 18.2992 24.6543 18.1756 23.9975 18.1757C22.6711 18.1761 21.3991 18.6805 20.4614 19.578C19.5238 20.4756 18.9972 21.6928 18.9975 22.9618C18.9978 24.2309 19.525 25.4478 20.4632 26.3449C21.4013 27.2421 22.6736 27.7459 24 27.7456ZM30 17.9389H32.9975C33.1966 17.9389 33.3876 17.8634 33.5287 17.7289C33.6697 17.5944 33.7493 17.4119 33.75 17.2214V14.3535C33.75 14.1626 33.6707 13.9795 33.5296 13.8445C33.3885 13.7094 33.197 13.6336 32.9975 13.6336H30C29.8004 13.6336 29.609 13.7094 29.4679 13.8445C29.3268 13.9795 29.2475 14.1626 29.2475 14.3535V17.2214C29.25 17.616 29.5875 17.9389 30 17.9389ZM24 0C17.6348 0 11.5303 2.41919 7.02943 6.72537C2.52856 11.0315 0 16.872 0 22.9618C0 29.0517 2.52856 34.8921 7.02943 39.1983C11.5303 43.5045 17.6348 45.9237 24 45.9237C27.1517 45.9237 30.2726 45.3298 33.1844 44.1758C36.0962 43.0219 38.7419 41.3305 40.9705 39.1983C43.1991 37.0661 44.967 34.5348 46.1731 31.749C47.3792 28.9631 48 25.9772 48 22.9618C48 19.9465 47.3792 16.9606 46.1731 14.1747C44.967 11.3889 43.1991 8.85757 40.9705 6.72537C38.7419 4.59316 36.0962 2.90181 33.1844 1.74787C30.2726 0.593926 27.1517 0 24 0ZM36.5 32.2638C36.5 33.7252 35.25 34.9211 33.7225 34.9211H14.2775C12.75 34.9211 11.5 33.7252 11.5 32.2638V13.6599C11.5 12.1985 12.75 11.0025 14.2775 11.0025H33.7225C35.25 11.0025 36.5 12.1985 36.5 13.6599V32.2638Z" fill="#6DB7C0"/>
</svg>
