<svg width="478" height="367" viewBox="0 0 478 367" fill="none" xmlns="http://www.w3.org/2000/svg">
<path d="M258.766 347.235C354.652 347.235 432.384 269.504 432.384 173.618C432.384 77.7313 354.652 0 258.766 0C162.879 0 85.1482 77.7313 85.1482 173.618C85.1482 269.504 162.879 347.235 258.766 347.235Z" fill="#DBE8EC"/>
<path d="M477.808 176.529V158.338C477.808 154.869 476.43 151.542 473.977 149.09C471.525 146.637 468.198 145.259 464.729 145.259H418.563C416.845 145.259 415.144 144.92 413.558 144.263C411.971 143.606 410.529 142.642 409.314 141.428C408.1 140.213 407.136 138.771 406.479 137.185C405.822 135.598 405.483 133.897 405.483 132.179V113.988C405.483 112.27 405.822 110.57 406.479 108.983C407.136 107.396 408.1 105.954 409.314 104.74C410.529 103.525 411.971 102.562 413.558 101.904C415.144 101.247 416.845 100.909 418.563 100.909H420.02C423.489 100.909 426.816 99.5306 429.269 97.0778C431.722 94.6249 433.1 91.2981 433.1 87.8292V69.638C433.1 66.1692 431.722 62.8424 429.269 60.3895C426.816 57.9366 423.489 56.5586 420.02 56.5586H88.1133C84.6444 56.5586 81.3176 57.9366 78.8648 60.3895C76.4119 62.8424 75.0339 66.1692 75.0339 69.638V87.8292C75.0339 91.2981 76.4119 94.6249 78.8648 97.0778C81.3176 99.5306 84.6444 100.909 88.1133 100.909C89.831 100.909 91.5318 101.247 93.1186 101.904C94.7055 102.562 96.1474 103.525 97.3619 104.74C98.5764 105.954 99.5399 107.396 100.197 108.983C100.854 110.57 101.193 112.27 101.193 113.988V132.179C101.193 133.897 100.854 135.598 100.197 137.185C99.5399 138.771 98.5764 140.213 97.3619 141.428C96.1474 142.642 94.7055 143.606 93.1186 144.263C91.5317 144.92 89.831 145.259 88.1133 145.259H37.534C34.0651 145.259 30.7383 146.637 28.2854 149.09C25.8325 151.542 24.4545 154.869 24.4545 158.338V176.529C24.4545 178.247 24.7928 179.948 25.4501 181.535C26.1074 183.122 27.0708 184.563 28.2854 185.778C29.4999 186.992 30.9418 187.956 32.5287 188.613C34.1155 189.271 35.8163 189.609 37.534 189.609H57.3805C60.8494 189.609 64.1762 190.987 66.6291 193.44C69.082 195.893 70.46 199.219 70.46 202.688V220.88C70.46 222.597 70.1217 224.298 69.4644 225.885C68.8071 227.472 67.8436 228.914 66.6291 230.128C65.4146 231.343 63.9727 232.306 62.3858 232.963C60.799 233.621 59.0981 233.959 57.3805 233.959H57.3325C53.8637 233.959 50.5369 235.337 48.084 237.79C45.6312 240.243 44.2532 243.57 44.2532 247.038V265.229C44.2532 266.947 44.5915 268.648 45.2488 270.235C45.9061 271.822 46.8695 273.263 48.084 274.478C49.2986 275.693 50.7404 276.656 52.3273 277.313C53.9142 277.971 55.615 278.309 57.3326 278.309H60.204C63.6729 278.309 66.9997 279.687 69.4525 282.14C71.9054 284.593 73.2834 287.919 73.2834 291.388V309.58C73.2834 313.048 71.9054 316.375 69.4525 318.828C66.9996 321.281 63.6728 322.659 60.204 322.659H13.0795C11.3618 322.659 9.66104 322.997 8.07417 323.655C6.48729 324.312 5.04543 325.275 3.83089 326.49C2.61635 327.704 1.65292 329.146 0.995613 330.733C0.338309 332.32 0 334.021 0 335.739V353.93C-1.31322e-06 355.647 0.33831 357.348 0.995613 358.935C1.65292 360.522 2.61634 361.964 3.83088 363.178C5.04542 364.393 6.48729 365.356 8.07416 366.014C9.66103 366.671 11.3618 367.009 13.0795 367.009H427.042C430.511 367.009 433.838 365.631 436.291 363.178C438.744 360.725 440.122 357.399 440.122 353.93V335.739C440.122 332.27 438.744 328.943 436.291 326.49C433.838 324.037 430.511 322.659 427.042 322.659H415.702C412.233 322.659 408.906 321.281 406.453 318.828C404 316.375 402.622 313.048 402.622 309.58V291.388C402.622 287.919 404 284.593 406.453 282.14C408.906 279.687 412.233 278.309 415.702 278.309H442.442C445.911 278.309 449.237 276.931 451.69 274.478C454.143 272.025 455.521 268.698 455.521 265.229V247.038C455.521 243.569 454.143 240.243 451.69 237.79C449.237 235.337 445.911 233.959 442.442 233.959H434.33C432.613 233.959 430.912 233.621 429.325 232.963C427.738 232.306 426.296 231.343 425.082 230.128C423.867 228.913 422.904 227.472 422.246 225.885C421.589 224.298 421.251 222.597 421.251 220.879V202.688C421.251 199.219 422.629 195.893 425.082 193.44C427.534 190.987 430.861 189.609 434.33 189.609H464.729C468.198 189.609 471.525 188.231 473.977 185.778C476.43 183.325 477.808 179.998 477.808 176.529Z" fill="#DBE8EC"/>
<path d="M77.6885 184.561H108.009" stroke="#B9D4DB" stroke-width="3" stroke-miterlimit="10" stroke-linecap="round"/>
<path d="M77.6885 193.299H108.009" stroke="#B9D4DB" stroke-width="3" stroke-miterlimit="10" stroke-linecap="round"/>
<path d="M77.6885 202.039H108.009" stroke="#B9D4DB" stroke-width="3" stroke-miterlimit="10" stroke-linecap="round"/>
<path d="M355.194 256.588H385.514" stroke="#B9D4DB" stroke-width="3" stroke-miterlimit="10" stroke-linecap="round"/>
<path d="M355.194 265.326H385.514" stroke="#B9D4DB" stroke-width="3" stroke-miterlimit="10" stroke-linecap="round"/>
<path d="M355.194 274.066H385.514" stroke="#B9D4DB" stroke-width="3" stroke-miterlimit="10" stroke-linecap="round"/>
<path d="M221.344 30.8477H251.664" stroke="#B9D4DB" stroke-width="3" stroke-miterlimit="10" stroke-linecap="round"/>
<path d="M221.344 39.5879H251.664" stroke="#B9D4DB" stroke-width="3" stroke-miterlimit="10" stroke-linecap="round"/>
<path d="M221.344 48.3262H251.664" stroke="#B9D4DB" stroke-width="3" stroke-miterlimit="10" stroke-linecap="round"/>
<path d="M306.346 355.549C313.504 355.549 319.306 349.747 319.306 342.589C319.306 335.431 313.504 329.629 306.346 329.629C299.189 329.629 293.386 335.431 293.386 342.589C293.386 349.747 299.189 355.549 306.346 355.549Z" fill="#B9D4DB"/>
<path d="M289.066 318.348C292.778 318.348 295.786 315.34 295.786 311.628C295.786 307.917 292.778 304.908 289.066 304.908C285.355 304.908 282.346 307.917 282.346 311.628C282.346 315.34 285.355 318.348 289.066 318.348Z" fill="#B9D4DB"/>
<path d="M333.025 327.948C338.327 327.948 342.625 323.65 342.625 318.348C342.625 313.046 338.327 308.748 333.025 308.748C327.723 308.748 323.425 313.046 323.425 318.348C323.425 323.65 327.723 327.948 333.025 327.948Z" fill="#B9D4DB"/>
<path d="M122.314 90.0155C130.83 90.0155 137.734 83.1118 137.734 74.5957C137.734 66.0795 130.83 59.1758 122.314 59.1758C113.798 59.1758 106.894 66.0795 106.894 74.5957C106.894 83.1118 113.798 90.0155 122.314 90.0155Z" fill="#B9D4DB"/>
<path d="M92.8486 71.644C97.2845 71.644 100.881 68.048 100.881 63.612C100.881 59.1761 97.2845 55.5801 92.8486 55.5801C88.4127 55.5801 84.8167 59.1761 84.8167 63.612C84.8167 68.048 88.4127 71.644 92.8486 71.644Z" fill="#B9D4DB"/>
<path d="M100.226 40.9419C102.785 40.9419 104.859 38.8676 104.859 36.3088C104.859 33.7501 102.785 31.6758 100.226 31.6758C97.6675 31.6758 95.5933 33.7501 95.5933 36.3088C95.5933 38.8676 97.6675 40.9419 100.226 40.9419Z" fill="#B9D4DB"/>
<path d="M125.874 50.6935C132.008 50.6935 136.98 45.7209 136.98 39.587C136.98 33.453 132.008 28.4805 125.874 28.4805C119.74 28.4805 114.767 33.453 114.767 39.587C114.767 45.7209 119.74 50.6935 125.874 50.6935Z" fill="#B9D4DB"/>
<path d="M397.906 130.283C406.422 130.283 413.326 123.379 413.326 114.863C413.326 106.347 406.422 99.4434 397.906 99.4434C389.39 99.4434 382.486 106.347 382.486 114.863C382.486 123.379 389.39 130.283 397.906 130.283Z" fill="#B9D4DB"/>
<path d="M366.509 124.632C370.945 124.632 374.541 121.036 374.541 116.6C374.541 112.164 370.945 108.568 366.509 108.568C362.073 108.568 358.477 112.164 358.477 116.6C358.477 121.036 362.073 124.632 366.509 124.632Z" fill="#B9D4DB"/>
<path d="M367.168 69.8545C371.008 69.8545 374.12 66.7421 374.12 62.9028C374.12 59.0635 371.008 55.9512 367.168 55.9512C363.329 55.9512 360.217 59.0635 360.217 62.9028C360.217 66.7421 363.329 69.8545 367.168 69.8545Z" fill="#B9D4DB"/>
<path d="M362.333 93.2622C364.892 93.2622 366.966 91.1879 366.966 88.6291C366.966 86.0704 364.892 83.9961 362.333 83.9961C359.774 83.9961 357.7 86.0704 357.7 88.6291C357.7 91.1879 359.774 93.2622 362.333 93.2622Z" fill="#B9D4DB"/>
<path d="M387.146 92.4669C393.28 92.4669 398.252 87.4943 398.252 81.3604C398.252 75.2264 393.28 70.2539 387.146 70.2539C381.012 70.2539 376.039 75.2264 376.039 81.3604C376.039 87.4943 381.012 92.4669 387.146 92.4669Z" fill="#B9D4DB"/>
<path d="M288.055 151.384C308.415 151.384 324.92 134.879 324.92 114.519C324.92 94.1592 308.415 77.6543 288.055 77.6543C267.695 77.6543 251.19 94.1592 251.19 114.519C251.19 134.879 267.695 151.384 288.055 151.384Z" fill="#D62828"/>
<path d="M309.911 102.048C313.105 102.048 315.694 99.4593 315.694 96.2654C315.694 93.0716 313.105 90.4824 309.911 90.4824C306.718 90.4824 304.128 93.0716 304.128 96.2654C304.128 99.4593 306.718 102.048 309.911 102.048Z" fill="#F9AE2B"/>
<path d="M406.994 204.372C417.426 183.143 367.065 137.032 294.51 101.381C221.955 65.7294 154.682 54.0377 144.25 75.2666C133.819 96.4956 184.18 142.606 256.735 178.258C329.289 213.909 396.563 225.601 406.994 204.372Z" fill="#409CB5"/>
<path d="M286.859 116.951C350.298 148.123 396.768 187.291 400.471 210.832C403.268 209.414 405.549 207.155 406.994 204.372C417.426 183.143 367.065 137.033 294.51 101.381C221.955 65.7297 154.682 54.038 144.251 75.267C142.932 78.1113 142.537 81.2975 143.123 84.3777C164.021 72.9248 223.42 85.7789 286.859 116.951Z" fill="#3086A3"/>
<path d="M320.473 180.886C324.633 172.421 304.552 154.036 275.622 139.82C246.693 125.605 219.869 120.943 215.709 129.408C211.55 137.872 231.63 156.258 260.56 170.474C289.49 184.689 316.314 189.351 320.473 180.886Z" fill="#F9AE2B"/>
<path d="M272.572 146.029C297.867 158.458 316.396 174.075 317.872 183.462C318.987 182.896 319.897 181.996 320.473 180.886C324.633 172.421 304.552 154.036 275.622 139.82C246.693 125.605 219.869 120.943 215.709 129.408C215.183 130.542 215.026 131.812 215.26 133.041C223.592 128.474 247.277 133.599 272.572 146.029Z" fill="#EA9918"/>
<path d="M258.718 358.888H28.572L215.259 133.039L318.948 183.989L258.718 358.888Z" fill="url(#paint0_linear_204_527)"/>
<defs>
<linearGradient id="paint0_linear_204_527" x1="299.173" y1="172.321" x2="111.833" y2="394.182" gradientUnits="userSpaceOnUse">
<stop stop-color="#F9AE2B"/>
<stop offset="1" stop-color="white" stop-opacity="0"/>
</linearGradient>
</defs>
</svg>
