<svg width="149" height="30" viewBox="0 0 149 30" fill="none" xmlns="http://www.w3.org/2000/svg">
<path d="M7.312 28.356C6.224 28.3987 5.22133 28.26 4.304 27.94C3.408 27.6413 2.672 27.2253 2.096 26.692C1.54133 26.1587 1.18933 25.54 1.04 24.836C0.890667 24.1107 1.01867 23.3747 1.424 22.628C1.97867 21.732 3.088 21.4653 4.752 21.828C6.01067 22.084 6.87467 22.2227 7.344 22.244C7.83467 22.2653 8.25067 22.2013 8.592 22.052C10.1493 21.54 11.024 20.9853 11.216 20.388C11.344 19.94 11.0667 19.4173 10.384 18.82C10.1067 18.564 9.79733 18.308 9.456 18.052C9.11467 17.796 8.82667 17.54 8.592 17.284C7.52533 16.4947 6.68267 15.588 6.064 14.564C5.46667 13.5187 5.22133 12.388 5.328 11.172C5.43467 9.956 5.63733 8.95333 5.936 8.164C6.23467 7.35333 6.608 6.63867 7.056 6.02C7.84533 4.932 8.86933 4.04667 10.128 3.364C11.5787 2.61733 12.7413 2.13733 13.616 1.924C15.344 1.54 17.0933 1.508 18.864 1.828C19.4613 1.93467 19.9733 2.13733 20.4 2.436C20.8267 2.73467 21.2533 3.044 21.68 3.364C22.4267 4.11067 22.608 4.868 22.224 5.636C22.0747 5.97733 21.84 6.25467 21.52 6.468C21.2 6.68133 20.8587 6.79867 20.496 6.82C20.5387 7.396 20.432 7.82267 20.176 8.1C19.6853 8.59067 18.832 8.91067 17.616 9.06C15.8667 8.932 14.6827 9.028 14.064 9.348C13.3387 9.732 13.072 10.564 13.264 11.844C13.3067 12.1213 13.4773 12.4093 13.776 12.708C14.096 13.0067 14.4587 13.3267 14.864 13.668C15.2907 14.0093 15.728 14.3933 16.176 14.82C16.6453 15.2467 17.0507 15.7373 17.392 16.292C18.5867 18.2547 18.4907 20.548 17.104 23.172C16.08 25.1347 14.3307 26.6067 11.856 27.588C10.576 28.1 9.06133 28.356 7.312 28.356ZM32.7763 10.788C33.6083 10.8947 34.1629 11.1933 34.4403 11.684C34.7389 12.1533 34.8563 12.6653 34.7923 13.22C34.7283 13.7533 34.5256 14.244 34.1843 14.692C33.8643 15.1187 33.5016 15.3427 33.0963 15.364C32.9469 15.812 32.7123 16.1213 32.3923 16.292C32.0723 16.4627 31.7203 16.58 31.3363 16.644C30.9523 16.708 30.5469 16.7827 30.1203 16.868C29.7149 16.932 29.3309 17.1133 28.9683 17.412C28.6056 17.7107 28.2963 18.0093 28.0403 18.308C27.8056 18.5853 27.6136 18.8627 27.4643 19.14C27.2083 19.6093 26.9843 20.1853 26.7923 20.868C26.7496 21.3373 26.9736 21.7747 27.4643 22.18C28.0403 22.628 28.6696 22.8307 29.3523 22.788C30.0349 22.724 30.5789 22.756 30.9843 22.884C31.4109 22.9907 31.7309 23.1507 31.9443 23.364C32.4136 23.8547 32.3709 24.42 31.8163 25.06C30.7496 26.7667 28.9576 27.78 26.4403 28.1C25.6936 28.2067 24.9469 28.228 24.2003 28.164C23.4536 28.1213 22.7283 27.844 22.0243 27.332C21.3203 26.82 20.7656 26.1267 20.3603 25.252C19.4642 23.2467 19.5389 20.9107 20.5843 18.244C21.5869 15.748 23.0909 13.828 25.0963 12.484C27.2936 10.9907 29.8536 10.4253 32.7763 10.788ZM38.3863 12.836C38.8343 12.516 39.3889 12.4413 40.0503 12.612C40.1783 12.6333 40.3063 12.644 40.4343 12.644C40.9036 11.684 41.7143 11.1827 42.8663 11.14C43.1649 11.1187 43.5809 11.0653 44.1143 10.98C44.6476 10.8947 45.2876 10.916 46.0343 11.044C46.8023 11.172 47.4743 11.396 48.0503 11.716C49.3089 12.3987 50.0663 13.38 50.3223 14.66C50.8343 16.5373 50.7596 18.5853 50.0983 20.804C49.3943 23.2573 48.1996 25.22 46.5143 26.692C45.7463 27.3747 44.9356 27.8013 44.0823 27.972C43.2289 28.164 42.4609 28.2707 41.7783 28.292C41.0956 28.3133 40.4663 28.3133 39.8903 28.292C39.3356 28.292 38.7916 28.2387 38.2583 28.132C37.1063 27.8973 36.1569 27.3533 35.4103 26.5C34.5356 25.54 34.1623 24.0467 34.2903 22.02C34.3756 20.228 34.8236 18.4253 35.6343 16.612C36.4663 14.7773 37.3836 13.5187 38.3863 12.836ZM44.0183 19.268C43.4849 19.4387 42.9836 19.5133 42.5143 19.492C42.2796 19.7267 42.0663 19.9827 41.8743 20.26C41.7036 20.516 41.4689 20.7613 41.1703 20.996C40.8716 21.2093 40.7223 21.2947 40.7223 21.252C40.3596 21.764 40.0609 22.2973 39.8263 22.852C39.5916 23.3853 39.5916 23.9293 39.8263 24.484C40.6796 24.5693 41.3089 24.548 41.7143 24.42C42.1196 24.292 42.4929 24.0467 42.8343 23.684C43.1969 23.3213 43.4743 22.8947 43.6663 22.404C44.0503 21.4867 44.1676 20.4413 44.0183 19.268ZM54.8475 12.452C55.4448 11.876 56.1062 11.5453 56.8315 11.46C57.5782 11.3533 58.2288 11.428 58.7835 11.684C59.3595 11.94 59.7755 12.356 60.0315 12.932C60.3088 13.4867 60.2768 14.1267 59.9355 14.852C59.2102 15.9187 58.6342 17.0707 58.2075 18.308C57.7808 19.5453 57.3862 20.7933 57.0235 22.052C58.9862 20.8147 60.6288 18.9693 61.9515 16.516C62.3355 15.7907 62.7515 15.0547 63.1995 14.308L63.6795 13.412L64.6395 11.876C64.7675 11.4707 64.9915 11.2147 65.3115 11.108C65.6315 10.98 65.9728 10.916 66.3355 10.916C66.7195 10.916 67.1035 10.9267 67.4875 10.948C67.8715 10.948 68.2235 10.8413 68.5435 10.628C68.8635 10.4147 69.2368 10.34 69.6635 10.404C70.1115 10.4467 70.5062 10.5853 70.8475 10.82C71.2102 11.0547 71.4768 11.3427 71.6475 11.684C71.8395 12.004 71.8608 12.324 71.7115 12.644C70.8155 14.564 69.5888 18.1373 68.0315 23.364C67.6688 24.5373 67.3275 25.5187 67.0075 26.308C66.4742 26.9693 65.8022 27.4173 64.9915 27.652C64.1808 27.8867 63.4128 27.9507 62.6875 27.844C61.9835 27.7587 61.4182 27.5133 60.9915 27.108C60.5648 26.724 60.4688 26.2333 60.7035 25.636C60.1062 26.1267 59.4875 26.5747 58.8475 26.98C58.2075 27.3853 57.4288 27.652 56.5115 27.78C55.6155 27.908 54.7515 27.8653 53.9195 27.652C53.0875 27.46 52.3728 27.076 51.7755 26.5C51.1995 25.924 50.8902 25.156 50.8475 24.196C50.7195 20.8253 52.0528 16.9107 54.8475 12.452ZM78.7658 2.564L78.7978 2.436L79.0858 2.148C79.3204 1.59333 79.5764 1.26266 79.8538 1.156C80.0031 1.11333 80.1951 1.06 80.4298 0.995998C80.6644 0.931999 80.9738 0.771999 81.3578 0.515999C81.5071 0.217332 81.8164 0.0893319 82.2858 0.131998C82.7551 0.153332 83.2138 0.302666 83.6618 0.579998C84.1311 0.835999 84.5044 1.19867 84.7818 1.668C85.0804 2.13733 85.1551 2.628 85.0058 3.14C84.8564 3.63067 84.7284 4.004 84.6218 4.26C84.5364 4.49467 84.4404 4.71867 84.3338 4.932C84.2484 5.14533 84.1311 5.39067 83.9818 5.668C83.8538 5.924 83.6831 6.276 83.4698 6.724L82.4138 8.932C82.3071 9.20933 82.2111 9.36933 82.1258 9.412C82.0618 9.45467 81.9978 9.52933 81.9338 9.636C82.1258 9.59333 82.2858 9.56133 82.4138 9.54C82.5418 9.51867 82.6698 9.49733 82.7978 9.476C83.0964 9.43333 83.4378 9.39067 83.8218 9.348C84.0564 9.39067 84.2591 9.412 84.4298 9.412H84.8778C85.1338 9.412 85.4431 9.48667 85.8058 9.636C86.1684 9.764 86.4031 9.99867 86.5098 10.34C86.6164 10.6813 86.6271 11.0333 86.5417 11.396C86.4564 11.7373 86.2858 12.0573 86.0298 12.356C85.7738 12.6547 85.4431 12.8147 85.0378 12.836C83.1818 13.348 81.8591 13.6253 81.0698 13.668L80.8778 13.892V13.924C80.6644 14.436 80.4298 15.0867 80.1738 15.876C79.9391 16.644 79.6724 17.4867 79.3738 18.404C79.0964 19.3 78.8084 20.2387 78.5098 21.22C78.2111 22.18 77.9018 23.108 77.5818 24.004C76.5578 27.012 75.8111 28.644 75.3418 28.9C75.1711 28.9853 74.9898 29.0387 74.7977 29.06C74.6271 29.1027 74.5311 29.1347 74.5098 29.156C73.7631 29.1133 73.1444 28.964 72.6538 28.708C72.1631 28.452 71.8324 28.2067 71.6618 27.972C71.4911 27.7373 71.4484 27.4707 71.5338 27.172C71.9391 23.46 72.7498 19.396 73.9658 14.98C73.5391 14.98 73.2404 15.0227 73.0698 15.108C72.7498 15.2787 72.3658 15.3747 71.9178 15.396H71.8858C71.5444 15.3747 71.2351 15.2147 70.9578 14.916C70.6804 14.6173 70.5098 14.276 70.4458 13.892C70.3818 13.508 70.4458 13.1133 70.6378 12.708C70.8298 12.3027 71.2138 11.9827 71.7898 11.748C72.4724 11.556 72.9738 11.396 73.2938 11.268C73.9124 11.012 74.4244 10.8307 74.8298 10.724C75.2564 10.6173 75.4911 10.5533 75.5338 10.532C75.5978 10.4893 75.6404 10.4573 75.6618 10.436C75.7258 10.3933 75.8858 10.372 76.1418 10.372C76.2698 9.75333 76.3978 9.124 76.5258 8.484C76.6538 7.844 76.8138 7.19333 77.0058 6.532C77.4324 4.996 78.0191 3.67333 78.7658 2.564ZM88.7673 26.212C88.4899 27.2147 87.7859 27.8867 86.6553 28.228C85.6313 28.5267 84.7139 28.42 83.9032 27.908C83.0286 27.3747 82.7512 26.5853 83.0712 25.54C83.3486 24.3453 83.8819 22.436 84.6713 19.812C85.4606 17.188 86.0153 15.3427 86.3353 14.276C87.0819 11.6307 87.5513 9.88133 87.7433 9.028C88.4046 6.89467 88.8739 5.572 89.1513 5.06C89.4499 4.548 89.7059 4.196 89.9193 4.004C90.1326 3.79067 90.4739 3.54533 90.9433 3.268C91.4339 2.99067 91.9566 2.77733 92.5113 2.628C93.0659 2.47867 93.6206 2.38267 94.1753 2.34C94.7299 2.276 95.2953 2.23333 95.8713 2.212C96.4473 2.16933 97.0873 2.06267 97.7913 1.892C98.0686 1.892 98.3139 1.87067 98.5273 1.828C98.7619 1.78533 98.9859 1.75333 99.1993 1.732C99.6899 1.68933 100.17 1.74267 100.639 1.892C101.13 2.04133 101.493 2.308 101.727 2.692C101.983 3.076 102.111 3.51333 102.111 4.004C102.111 4.49467 102.005 5.01733 101.791 5.572C101.599 6.12667 101.322 6.66 100.959 7.172C100.17 8.28133 99.1779 9.07067 97.9833 9.54C97.1513 9.796 96.5539 9.924 96.1913 9.924C95.8286 9.924 95.5726 9.88133 95.4233 9.796C95.2953 9.71067 95.2206 9.64667 95.1993 9.604C95.1779 9.56133 95.1033 9.636 94.9753 9.828C94.7833 10.1053 94.6446 10.4147 94.5593 10.756C94.4739 11.0973 94.3779 11.3533 94.2713 11.524C94.1646 11.6733 94.0153 11.9827 93.8233 12.452C93.6526 12.9213 93.4286 13.316 93.1513 13.636C92.8739 13.9347 92.7139 14.116 92.6713 14.18L95.4873 13.892C95.9353 13.8493 96.3193 13.9453 96.6393 14.18C96.9806 14.3933 97.2153 14.66 97.3433 14.98C97.4926 15.3 97.5353 15.62 97.4713 15.94C97.4073 16.2387 97.2153 16.4733 96.8953 16.644C96.5753 16.7933 96.3619 16.9533 96.2553 17.124C96.1699 17.2733 96.0953 17.4227 96.0313 17.572C95.9673 17.7213 95.8819 17.8707 95.7753 18.02C95.6899 18.1693 95.4873 18.308 95.1673 18.436C94.4846 18.756 93.1726 19.012 91.2313 19.204C91.1246 19.524 90.9753 19.908 90.7833 20.356C90.6126 20.7827 90.4313 21.2307 90.2393 21.7C89.6846 23.1293 89.3646 23.9933 89.2793 24.292C89.2153 24.5907 89.1619 24.836 89.1193 25.028C88.9913 25.604 88.8739 25.9987 88.7673 26.212ZM103.866 25.252C103.738 25.7 103.588 26.0947 103.418 26.436C103.247 26.7773 102.991 27.0973 102.65 27.396C102.308 27.6947 101.903 27.972 101.434 28.228C100.964 28.5053 100.516 28.6973 100.09 28.804C99.1084 29.0173 98.5964 28.7293 98.5538 27.94C98.4898 27.7267 98.3511 27.5987 98.1378 27.556C97.9458 27.5347 97.7644 27.4813 97.5938 27.396C97.1457 27.204 97.0177 26.6813 97.2097 25.828C97.5511 24.6547 97.9244 23.236 98.3298 21.572C98.7351 19.8867 99.2578 18.0413 99.8978 16.036C101.412 11.172 103.29 6.788 105.53 2.884C105.679 2.692 105.85 2.44667 106.042 2.148C106.234 1.828 106.479 1.54 106.778 1.284C107.524 0.601332 108.442 0.441332 109.53 0.803999C109.508 1.08133 109.572 1.33733 109.722 1.572C109.871 1.78533 110.042 2.00933 110.234 2.244C110.724 2.79867 110.948 3.3 110.906 3.748C108.644 9.10267 106.607 15.0867 104.794 21.7C104.58 22.468 104.41 23.14 104.282 23.716C104.154 24.292 104.015 24.804 103.866 25.252ZM121.656 12.772L121.784 12.804C121.827 12.804 121.848 12.8147 121.848 12.836C122.403 12.6227 122.861 12.7827 123.224 13.316C123.459 13.6787 123.64 14.2333 123.768 14.98C123.811 16.004 123.704 17.4227 123.448 19.236C122.957 22.9053 122.691 25.092 122.648 25.796C122.691 26.5427 122.232 27.0547 121.272 27.332C120.44 27.588 119.608 27.5773 118.776 27.3C117.901 27.0013 117.539 26.5427 117.688 25.924C117.517 26.244 117.347 26.468 117.176 26.596C117.005 26.7453 116.664 26.9373 116.152 27.172C115.661 27.428 114.957 27.6307 114.04 27.78C113.123 27.9507 112.205 27.9933 111.288 27.908C110.371 27.844 109.528 27.62 108.76 27.236C108.013 26.8733 107.512 26.2973 107.256 25.508C106.765 23.972 106.829 22.02 107.448 19.652C107.875 18.0947 108.643 16.7187 109.752 15.524C111.032 14.1587 112.483 13.028 114.104 12.132C115.32 11.4707 116.493 11.076 117.624 10.948C118.008 10.9053 118.339 10.916 118.616 10.98C118.915 11.044 119.224 11.108 119.544 11.172C119.885 11.236 120.205 11.332 120.504 11.46C121.272 11.78 121.656 12.2173 121.656 12.772ZM115.736 21.252C115.885 20.9533 116.003 20.58 116.088 20.132C116.195 19.684 116.333 19.1933 116.504 18.66C114.776 19.364 113.453 20.228 112.536 21.252C111.533 22.3827 111.597 23.1613 112.728 23.588C113.709 23.844 114.424 23.684 114.872 23.108C115.064 22.852 115.235 22.532 115.384 22.148C115.533 21.764 115.715 21.3693 115.928 20.964C115.864 21.0707 115.8 21.1667 115.736 21.252ZM128.38 12.644C128.658 11.94 129.319 11.46 130.364 11.204C131.346 10.948 132.263 10.98 133.116 11.3C133.991 11.6413 134.386 12.196 134.3 12.964C134.066 13.7107 133.767 14.628 133.404 15.716C133.063 16.7827 132.732 17.8813 132.412 19.012C131.559 21.9133 131.068 23.9613 130.94 25.156C130.62 27.076 130.087 28.1107 129.34 28.26C129.127 28.3027 128.924 28.3347 128.732 28.356C128.263 28.3773 127.964 28.5053 127.836 28.74C127.708 28.9747 127.495 29.1453 127.196 29.252C126.898 29.38 126.567 29.4333 126.204 29.412C125.863 29.412 125.511 29.3267 125.148 29.156C124.786 29.0067 124.476 28.7827 124.22 28.484C123.623 27.7587 123.506 26.788 123.868 25.572C124.21 23.2467 125.074 20.292 126.46 16.708C127.122 14.9373 127.762 13.5827 128.38 12.644ZM134.428 7.844C133.383 8.05733 132.53 7.99333 131.868 7.652C131.228 7.31067 130.855 6.90533 130.748 6.436C130.642 5.94533 130.791 5.444 131.196 4.932C131.666 4.292 132.37 3.876 133.308 3.684C133.735 3.64133 134.044 3.62 134.236 3.62C134.428 3.62 134.663 3.66267 134.94 3.748C135.644 3.812 136.103 4.12133 136.316 4.676C136.615 5.14533 136.636 5.67867 136.38 6.276C136.146 6.87333 135.495 7.396 134.428 7.844ZM137.766 13.252C138.064 12.484 138.48 11.908 139.014 11.524C139.568 11.1187 140.091 10.8733 140.582 10.788C141.094 10.6813 141.51 10.7347 141.83 10.948C142.171 11.1613 142.288 11.492 142.182 11.94C142.587 11.5347 143.174 11.1613 143.942 10.82C144.71 10.4787 145.318 10.244 145.766 10.116C146.214 9.988 146.598 9.924 146.918 9.924C147.622 9.96667 147.824 10.3507 147.526 11.076C147.888 11.14 148.155 11.3747 148.326 11.78C148.496 12.1853 148.518 12.6333 148.39 13.124C148.262 13.6147 147.974 14.0947 147.526 14.564C147.078 15.0333 146.47 15.3533 145.702 15.524C144.955 15.6947 144.326 16.0893 143.814 16.708C143.323 17.3053 142.886 18.052 142.502 18.948C141.862 20.4627 141.286 22.6067 140.774 25.38C140.603 26.3827 139.91 27.2253 138.694 27.908C137.542 28.5693 136.486 28.7613 135.526 28.484C134.438 28.1853 133.957 27.3853 134.085 26.084C134.128 25.1667 134.405 23.9507 134.918 22.436C135.43 20.9 135.824 19.748 136.102 18.98C136.379 18.1907 136.571 17.5933 136.678 17.188L137.766 13.252Z" fill="#6DB7C0"/>
</svg>
