<svg width="504" height="455" viewBox="0 0 504 455" fill="none" xmlns="http://www.w3.org/2000/svg">
<path opacity="0.63" d="M346.967 23.2583C289.883 -14.3605 209.665 -6.75809 159.2 49.0803C131.609 79.6211 120.402 121.631 91.7617 151.516C59.5169 185.203 20.9806 217.906 6.36558 263.783C-9.16694 312.543 4.46498 368.447 39.2001 405.738C81.4722 451.091 143.602 437.459 202.324 436.738C442.784 433.723 621.506 273.22 394.089 75.3611C375.083 58.7144 365.842 35.645 346.967 23.2583Z" fill="#CCE9FF"/>
<path d="M454.711 49.2773H49.0309C40.9041 49.2773 34.2848 55.8312 34.2848 63.9579V343.347H469.458V63.9579C469.458 55.8312 462.838 49.2773 454.711 49.2773Z" fill="#0B4870"/>
<path d="M454.187 55.4375H49.5552C44.5087 55.4375 40.4454 59.5009 40.4454 64.5473V339.217H463.297V64.5473C463.297 59.5009 459.234 55.4375 454.187 55.4375Z" fill="#0E538C"/>
<path d="M55.6501 75.7539H448.092V329.452H55.6501V75.7539Z" fill="#0B4870"/>
<path d="M254.099 66.8416C254.099 68.0868 253.116 69.0699 251.871 69.0699C250.626 69.0699 249.643 68.0868 249.643 66.8416C249.643 65.5963 250.626 64.6133 251.871 64.6133C253.116 64.6788 254.099 65.6619 254.099 66.8416Z" fill="#F6F6F6"/>
<path d="M104.869 89.7793H144.192V96.7263H104.869V89.7793Z" fill="#FFBE55"/>
<path d="M69.3476 89.7793H85.5355V96.7263H69.3476V89.7793ZM69.3476 102.494H85.5355V109.441H69.3476V102.494ZM69.3476 117.567H85.5355V124.514H69.3476V117.567ZM69.3476 132.576H85.5355V139.523H69.3476V132.576ZM69.3476 147.649H85.5355V154.596H69.3476V147.649ZM69.3476 162.658H85.5355V169.605H69.3476V162.658ZM152.319 89.7793H284.247V96.7263H152.319V89.7793Z" fill="#CCE9FF"/>
<path d="M118.763 102.494H158.086V109.441H118.763V102.494Z" fill="#FFBE55"/>
<path d="M166.213 102.494H298.141V109.441H166.213V102.494Z" fill="#CCE9FF"/>
<path d="M141.964 117.568H181.287V124.515H141.964V117.568Z" fill="#FFBE55"/>
<path d="M189.413 117.568H321.341V124.515H189.413V117.568Z" fill="#CCE9FF"/>
<path d="M165.099 132.574H204.422V139.521H165.099V132.574Z" fill="#FFBE55"/>
<path d="M212.548 132.574H344.476V139.521H212.548V132.574Z" fill="#CCE9FF"/>
<path d="M141.964 147.648H181.287V154.595H141.964V147.648Z" fill="#FFBE55"/>
<path d="M189.413 147.648H390.812V154.595H189.413V147.648Z" fill="#CCE9FF"/>
<path d="M118.763 162.658H158.086V169.605H118.763V162.658Z" fill="#FFBE55"/>
<path d="M166.213 162.658H251.871V169.605H166.213V162.658Z" fill="#CCE9FF"/>
<path opacity="0.4" d="M104.869 182.385H144.192V189.332H104.869V182.385Z" fill="#FFBE55"/>
<path opacity="0.4" d="M69.3476 182.385H85.5355V189.332H69.3476V182.385ZM69.3476 195.099H85.5355V202.046H69.3476V195.099ZM69.3476 210.173H85.5355V217.12H69.3476V210.173ZM69.3476 225.181H85.5355V232.128H69.3476V225.181ZM69.3476 240.255H85.5355V247.202H69.3476V240.255ZM69.3476 255.263H85.5355V262.21H69.3476V255.263ZM152.319 182.385H284.247V189.332H152.319V182.385Z" fill="#CCE9FF"/>
<path opacity="0.4" d="M118.763 195.098H158.086V202.045H118.763V195.098Z" fill="#FFBE55"/>
<path opacity="0.4" d="M166.213 195.098H298.141V202.045H166.213V195.098Z" fill="#CCE9FF"/>
<path opacity="0.4" d="M141.964 210.172H181.287V217.119H141.964V210.172Z" fill="#FFBE55"/>
<path opacity="0.4" d="M189.413 210.172H321.341V217.119H189.413V210.172Z" fill="#CCE9FF"/>
<path opacity="0.4" d="M104.869 274.924H144.192V281.871H104.869V274.924Z" fill="#FFBE55"/>
<path opacity="0.4" d="M69.3476 274.924H85.5355V281.871H69.3476V274.924ZM69.3476 287.704H85.5355V294.651H69.3476V287.704ZM69.3476 302.712H85.5355V309.659H69.3476V302.712ZM152.319 274.924H284.247V281.871H152.319V274.924Z" fill="#CCE9FF"/>
<path opacity="0.4" d="M118.763 287.705H158.086V294.652H118.763V287.705Z" fill="#FFBE55"/>
<path opacity="0.4" d="M166.213 287.705H298.141V294.652H166.213V287.705Z" fill="#CCE9FF"/>
<path opacity="0.4" d="M141.964 302.713H181.287V309.66H141.964V302.713Z" fill="#FFBE55"/>
<path opacity="0.4" d="M189.413 302.713H321.341V309.66H189.413V302.713Z" fill="#CCE9FF"/>
<path opacity="0.4" d="M165.099 225.182H204.422V232.129H165.099V225.182Z" fill="#FFBE55"/>
<path opacity="0.4" d="M212.548 225.182H413.947V232.129H212.548V225.182Z" fill="#CCE9FF"/>
<path opacity="0.4" d="M141.964 240.254H181.287V247.201H141.964V240.254Z" fill="#FFBE55"/>
<path opacity="0.4" d="M189.413 240.254H321.341V247.201H189.413V240.254Z" fill="#CCE9FF"/>
<path opacity="0.4" d="M118.763 255.264H158.086V262.211H118.763V255.264Z" fill="#FFBE55"/>
<path opacity="0.4" d="M166.213 255.264H298.141V262.211H166.213V255.264Z" fill="#CCE9FF"/>
<path d="M498.36 338.365H5.38246C2.56433 338.365 0.204956 340.659 0.204956 343.543V350.228C0.204956 353.046 2.49879 355.405 5.38246 355.405H498.425C501.243 355.405 503.603 353.111 503.603 350.228V343.543C503.537 340.659 501.243 338.365 498.36 338.365Z" fill="#D3D3D3"/>
<path d="M294.143 345.771H209.599C208.485 345.771 207.567 346.689 207.567 347.803C207.567 348.917 208.485 349.835 209.599 349.835H294.209C295.323 349.835 296.24 348.917 296.24 347.803C296.175 346.689 295.257 345.771 294.143 345.771Z" fill="#F7F7F7"/>
<path d="M363.679 411.965L363.613 422.516C363.613 422.516 364.924 429.267 366.038 436.476C367.087 443.685 367.939 451.353 366.825 453.123C364.662 456.662 360.402 453.123 359.681 449.583C358.96 446.044 357.912 423.958 357.912 423.958L357.191 409.736L363.679 411.965ZM374.427 410.523L372.789 420.026C372.789 420.026 369.577 445.979 371.347 449.911C373.116 453.843 378.818 452.074 378.491 446.7C378.163 441.391 379.539 422.516 379.539 422.516L382.751 411.113L374.427 410.523Z" fill="#0B4870"/>
<path d="M370.036 294.846L369.25 306.512L399.397 321.062C404.837 324.011 407.458 330.368 405.689 336.266L384.848 413.798L374.493 410.521L383.603 339.216C384.258 334.825 381.243 330.761 376.852 330.04L366.104 328.336L354.7 316.671L367.939 328.533C371.15 331.417 372.723 335.677 372.133 339.937L363.679 411.963L354.307 414.322L350.113 343.476C349.785 338.953 346.77 335.152 342.51 333.776L323.963 327.878C321.014 326.108 319.179 322.897 319.048 319.423L319.834 294.453L370.036 294.846Z" fill="#0B4870"/>
<path d="M317.868 320.997L322.849 224.132C322.849 224.132 343.428 222.887 349.588 222.887C352.931 222.887 358.633 224.46 363.155 225.901C367.415 227.278 370.888 227.147 372.985 231.079L406.738 295.831L385.962 297.797L379.015 289.932L382.554 284.624L369.905 254.869L372.396 308.938L317.868 320.997Z" fill="#FFBE55"/>
<path opacity="0.08" d="M370.364 243.074L392.778 283.511L385.831 291.703C385.831 291.703 383.013 292.293 380.326 291.376L379.08 289.934L382.62 284.625L369.971 254.871L370.364 243.074Z" fill="#0F0F0F"/>
<path d="M350.44 252.183C343.624 252.183 331.172 234.422 331.172 227.606C331.172 226.23 331.434 224.919 331.827 223.674C338.185 223.346 346.115 222.953 349.588 222.953C351.096 222.953 353.062 223.281 355.225 223.74C355.618 224.985 355.88 226.23 355.88 227.606C355.814 234.422 357.256 252.183 350.44 252.183Z" fill="white"/>
<path opacity="0.08" d="M320.358 240.91L317.868 321.587L351.161 313.592L320.358 240.91Z" fill="#0F0F0F"/>
<path d="M351.62 212.99C351.03 214.17 346.967 230.03 346.967 230.03C346.967 230.03 345.525 232.651 342.052 232.324C338.578 232.062 337.136 227.146 337.136 227.146L343.231 207.223L351.62 212.99Z" fill="#FCD2B1"/>
<path d="M330.255 203.225C330.255 214.169 341.855 226.294 352.8 226.294C363.745 226.294 369.84 214.169 369.84 203.225C369.84 192.28 360.992 183.432 350.047 183.432C339.102 183.366 330.255 192.28 330.255 203.225Z" fill="#FFBCC6"/>
<path d="M354.083 226.804C366.23 224.824 374.471 213.373 372.491 201.226C370.511 189.08 359.059 180.839 346.913 182.819C334.767 184.799 326.525 196.251 328.505 208.397C330.486 220.543 341.937 228.784 354.083 226.804Z" fill="#FFE3CA"/>
<path d="M346.311 311.691C347.163 311.429 354.504 307.824 359.681 307.824C364.859 307.824 371.216 313.329 371.216 313.329C371.216 313.329 372.068 316.213 368.594 315.623C365.121 315.033 369.053 317.786 369.053 317.786C369.053 317.786 368.857 317.917 364.793 318.507C360.73 319.097 345.001 318.245 345.001 318.245L346.311 311.691Z" fill="#FFE3CA"/>
<path d="M322.849 224.197L320.031 287.9L346.246 311.625L345.001 318.31L308.103 298.583C304.564 296.682 302.532 292.75 303.056 288.752L309.807 239.992C310.331 233.897 314.067 228.523 319.506 225.836L322.849 224.197ZM343.624 323.75H410.342V318.834H343.624C342.248 318.834 341.199 319.948 341.199 321.259C341.134 322.635 342.248 323.75 343.624 323.75Z" fill="#FFBE55"/>
<path d="M361.909 323.75H426.268C429.086 323.75 431.576 321.849 432.363 319.096L443.701 276.3C444.75 272.302 441.735 268.436 437.606 268.436H381.44C378.622 268.436 376.131 270.336 375.345 273.089L361.909 323.75Z" fill="#FFBE55"/>
<path opacity="0.22" d="M361.909 323.75H426.268C429.086 323.75 431.576 321.849 432.363 319.096L443.701 276.3C444.75 272.302 441.735 268.436 437.606 268.436H381.44C378.622 268.436 376.131 270.336 375.345 273.089L361.909 323.75Z" fill="white"/>
<path d="M399.79 299.895C399.07 302.714 400.839 304.942 403.723 304.942C406.606 304.942 409.49 302.648 410.211 299.895C410.932 297.077 409.162 294.849 406.279 294.849C403.395 294.783 400.511 297.077 399.79 299.895Z" fill="white"/>
<path d="M350.506 182.516C361.975 182.516 371.347 191.167 372.658 202.243C368.791 205.126 363.745 206.371 358.96 205.585C353.324 204.602 348.278 200.735 345.918 195.558C346.115 198.048 346.246 200.539 345.853 202.964C345.459 205.388 344.411 207.813 342.445 209.386C342.314 207.682 342.117 205.847 341.265 204.34C340.347 202.832 338.447 201.784 336.874 202.439C335.694 202.898 334.973 204.078 334.777 205.323C334.58 206.568 334.908 207.813 335.367 208.993C336.087 210.828 337.136 212.532 338.447 213.908C335.825 214.302 333.007 214.629 330.386 214.367C329.009 211.418 328.157 208.207 328.157 204.733C328.157 192.477 338.185 182.516 350.506 182.516Z" fill="#2A94F4"/>
<path d="M331.303 208.467C331.303 212.203 334.318 215.218 338.054 215.218C341.789 215.218 344.804 212.203 344.804 208.467C344.804 204.732 341.789 201.717 338.054 201.717C334.384 201.717 331.303 204.732 331.303 208.467ZM374.427 410.521L373.248 417.665L380.326 419.893L382.292 412.88L374.427 410.521ZM363.613 419.893L357.715 421.007L357.387 413.536L363.679 411.963L363.613 419.893Z" fill="#FFE3CA"/>
<path d="M338.054 192.804C343.555 192.804 348.016 188.344 348.016 182.843C348.016 177.341 343.555 172.881 338.054 172.881C332.552 172.881 328.092 177.341 328.092 182.843C328.092 188.344 332.552 192.804 338.054 192.804Z" fill="#2A94F4"/>
</svg>
