<svg width="1004" height="864" viewBox="0 0 1004 864" fill="none" xmlns="http://www.w3.org/2000/svg">
<path d="M379.139 207.083C428.402 121.728 551.598 121.728 600.861 207.083L869.197 672.017C918.447 757.35 856.862 864 758.336 864H221.664C123.138 864 61.553 757.35 110.803 672.017L379.139 207.083Z" fill="#D4D6DB"/>
<path d="M403.139 192.083C452.402 106.728 575.598 106.728 624.861 192.083L893.197 657.017C942.447 742.35 880.862 849 782.336 849H245.664C147.138 849 85.553 742.35 134.803 657.017L403.139 192.083Z" fill="#E5AA42"/>
<circle cx="513.5" cy="259.5" r="81.5" fill="#1B2B4C"/>
<circle cx="378.5" cy="492.5" r="81.5" fill="#1B2B4C"/>
<circle cx="248.5" cy="722.5" r="81.5" fill="#1B2B4C"/>
<circle cx="780.5" cy="722.5" r="81.5" fill="#1B2B4C"/>
<path d="M458.852 255.727C458.733 254.72 458.249 253.938 457.401 253.381C456.552 252.824 455.511 252.545 454.278 252.545C453.377 252.545 452.588 252.691 451.912 252.983C451.242 253.275 450.719 253.676 450.341 254.186C449.97 254.696 449.784 255.277 449.784 255.926C449.784 256.47 449.913 256.937 450.172 257.328C450.437 257.713 450.775 258.034 451.186 258.293C451.597 258.545 452.028 258.753 452.479 258.919C452.929 259.078 453.344 259.207 453.722 259.307L455.79 259.864C456.32 260.003 456.91 260.195 457.56 260.44C458.216 260.686 458.842 261.02 459.439 261.445C460.042 261.862 460.539 262.399 460.93 263.055C461.321 263.712 461.517 264.517 461.517 265.472C461.517 266.572 461.229 267.566 460.652 268.455C460.082 269.343 459.247 270.049 458.146 270.572C457.053 271.096 455.723 271.358 454.159 271.358C452.701 271.358 451.438 271.123 450.371 270.652C449.31 270.181 448.475 269.525 447.865 268.683C447.262 267.841 446.92 266.864 446.841 265.75H449.386C449.453 266.519 449.711 267.155 450.162 267.659C450.619 268.156 451.196 268.527 451.892 268.773C452.595 269.011 453.35 269.131 454.159 269.131C455.1 269.131 455.946 268.978 456.695 268.673C457.444 268.362 458.037 267.931 458.474 267.381C458.912 266.824 459.131 266.174 459.131 265.432C459.131 264.756 458.942 264.205 458.564 263.781C458.186 263.357 457.689 263.012 457.072 262.747C456.456 262.482 455.79 262.25 455.074 262.051L452.568 261.335C450.977 260.878 449.718 260.225 448.79 259.376C447.862 258.528 447.398 257.418 447.398 256.045C447.398 254.905 447.706 253.911 448.322 253.062C448.946 252.207 449.781 251.545 450.828 251.074C451.882 250.597 453.059 250.358 454.358 250.358C455.67 250.358 456.837 250.593 457.858 251.064C458.879 251.528 459.688 252.164 460.284 252.973C460.887 253.782 461.205 254.7 461.239 255.727H458.852ZM471.895 255.727V257.716H463.98V255.727H471.895ZM466.287 252.068H468.634V266.625C468.634 267.288 468.73 267.785 468.922 268.116C469.121 268.441 469.373 268.66 469.678 268.773C469.989 268.879 470.318 268.932 470.662 268.932C470.921 268.932 471.133 268.919 471.299 268.892C471.464 268.859 471.597 268.832 471.696 268.812L472.174 270.92C472.015 270.98 471.792 271.04 471.507 271.099C471.222 271.166 470.861 271.199 470.424 271.199C469.761 271.199 469.111 271.056 468.475 270.771C467.845 270.486 467.321 270.052 466.904 269.469C466.493 268.885 466.287 268.15 466.287 267.261V252.068ZM479.919 271.358C478.952 271.358 478.073 271.176 477.284 270.811C476.496 270.44 475.869 269.906 475.405 269.21C474.941 268.508 474.709 267.659 474.709 266.665C474.709 265.79 474.882 265.08 475.226 264.537C475.571 263.987 476.032 263.556 476.608 263.244C477.185 262.933 477.821 262.701 478.517 262.548C479.22 262.389 479.926 262.263 480.635 262.17C481.563 262.051 482.316 261.962 482.892 261.902C483.476 261.836 483.9 261.726 484.165 261.574C484.437 261.421 484.573 261.156 484.573 260.778V260.699C484.573 259.718 484.304 258.955 483.767 258.412C483.237 257.868 482.432 257.597 481.351 257.597C480.231 257.597 479.353 257.842 478.716 258.332C478.08 258.823 477.632 259.347 477.374 259.903L475.147 259.108C475.544 258.18 476.075 257.457 476.738 256.94C477.407 256.417 478.136 256.052 478.925 255.847C479.721 255.634 480.503 255.528 481.272 255.528C481.762 255.528 482.326 255.588 482.962 255.707C483.605 255.82 484.225 256.055 484.821 256.413C485.425 256.771 485.925 257.312 486.323 258.034C486.721 258.757 486.919 259.724 486.919 260.938V271H484.573V268.932H484.453C484.294 269.263 484.029 269.618 483.658 269.996C483.287 270.374 482.793 270.695 482.176 270.96C481.56 271.225 480.808 271.358 479.919 271.358ZM480.277 269.25C481.205 269.25 481.988 269.068 482.624 268.703C483.267 268.339 483.751 267.868 484.076 267.291C484.407 266.714 484.573 266.108 484.573 265.472V263.324C484.473 263.443 484.255 263.553 483.917 263.652C483.585 263.745 483.201 263.828 482.763 263.901C482.332 263.967 481.911 264.027 481.5 264.08C481.096 264.126 480.768 264.166 480.516 264.199C479.906 264.278 479.336 264.408 478.806 264.587C478.282 264.759 477.858 265.021 477.533 265.372C477.215 265.717 477.056 266.187 477.056 266.784C477.056 267.599 477.357 268.216 477.961 268.634C478.57 269.045 479.343 269.25 480.277 269.25ZM491.202 271V255.727H493.469V258.034H493.629C493.907 257.278 494.411 256.665 495.14 256.195C495.869 255.724 496.691 255.489 497.606 255.489C497.778 255.489 497.994 255.492 498.252 255.499C498.511 255.505 498.706 255.515 498.839 255.528V257.915C498.759 257.895 498.577 257.865 498.292 257.825C498.013 257.779 497.719 257.756 497.407 257.756C496.665 257.756 496.002 257.911 495.418 258.223C494.842 258.528 494.384 258.952 494.046 259.496C493.715 260.033 493.549 260.646 493.549 261.335V271H491.202ZM509.219 255.727V257.716H501.305V255.727H509.219ZM503.612 252.068H505.958V266.625C505.958 267.288 506.054 267.785 506.246 268.116C506.445 268.441 506.697 268.66 507.002 268.773C507.314 268.879 507.642 268.932 507.987 268.932C508.245 268.932 508.457 268.919 508.623 268.892C508.789 268.859 508.921 268.832 509.021 268.812L509.498 270.92C509.339 270.98 509.117 271.04 508.832 271.099C508.547 271.166 508.185 271.199 507.748 271.199C507.085 271.199 506.435 271.056 505.799 270.771C505.169 270.486 504.646 270.052 504.228 269.469C503.817 268.885 503.612 268.15 503.612 267.261V252.068ZM520.942 271V250.636H523.408V259.705H534.266V250.636H536.732V271H534.266V261.892H523.408V271H520.942ZM547.754 271.318C546.283 271.318 545.013 270.993 543.946 270.344C542.885 269.688 542.067 268.773 541.49 267.599C540.92 266.42 540.635 265.047 540.635 263.483C540.635 261.919 540.92 260.54 541.49 259.347C542.067 258.147 542.869 257.212 543.896 256.543C544.93 255.866 546.137 255.528 547.516 255.528C548.311 255.528 549.097 255.661 549.872 255.926C550.648 256.191 551.354 256.622 551.99 257.219C552.626 257.809 553.134 258.591 553.511 259.565C553.889 260.54 554.078 261.74 554.078 263.165V264.159H542.305V262.131H551.692C551.692 261.269 551.519 260.5 551.175 259.824C550.837 259.148 550.353 258.614 549.723 258.223C549.1 257.832 548.364 257.636 547.516 257.636C546.581 257.636 545.772 257.868 545.089 258.332C544.413 258.79 543.893 259.386 543.528 260.122C543.164 260.858 542.982 261.647 542.982 262.489V263.841C542.982 264.994 543.18 265.972 543.578 266.774C543.982 267.57 544.543 268.176 545.259 268.594C545.974 269.005 546.806 269.21 547.754 269.21C548.371 269.21 548.928 269.124 549.425 268.952C549.929 268.773 550.363 268.508 550.727 268.156C551.092 267.798 551.374 267.354 551.572 266.824L553.839 267.46C553.601 268.229 553.2 268.905 552.636 269.489C552.073 270.065 551.377 270.516 550.548 270.841C549.72 271.159 548.788 271.318 547.754 271.318ZM557.648 271V255.727H559.915V258.034H560.074C560.352 257.278 560.856 256.665 561.585 256.195C562.314 255.724 563.136 255.489 564.051 255.489C564.223 255.489 564.439 255.492 564.697 255.499C564.956 255.505 565.152 255.515 565.284 255.528V257.915C565.205 257.895 565.022 257.865 564.737 257.825C564.459 257.779 564.164 257.756 563.852 257.756C563.11 257.756 562.447 257.911 561.864 258.223C561.287 258.528 560.83 258.952 560.491 259.496C560.16 260.033 559.994 260.646 559.994 261.335V271H557.648ZM574.004 271.318C572.533 271.318 571.263 270.993 570.196 270.344C569.135 269.688 568.317 268.773 567.74 267.599C567.17 266.42 566.885 265.047 566.885 263.483C566.885 261.919 567.17 260.54 567.74 259.347C568.317 258.147 569.119 257.212 570.146 256.543C571.18 255.866 572.387 255.528 573.766 255.528C574.561 255.528 575.347 255.661 576.122 255.926C576.898 256.191 577.604 256.622 578.24 257.219C578.876 257.809 579.384 258.591 579.761 259.565C580.139 260.54 580.328 261.74 580.328 263.165V264.159H568.555V262.131H577.942C577.942 261.269 577.769 260.5 577.425 259.824C577.087 259.148 576.603 258.614 575.973 258.223C575.35 257.832 574.614 257.636 573.766 257.636C572.831 257.636 572.022 257.868 571.339 258.332C570.663 258.79 570.143 259.386 569.778 260.122C569.414 260.858 569.232 261.647 569.232 262.489V263.841C569.232 264.994 569.43 265.972 569.828 266.774C570.232 267.57 570.793 268.176 571.509 268.594C572.224 269.005 573.056 269.21 574.004 269.21C574.621 269.21 575.178 269.124 575.675 268.952C576.179 268.773 576.613 268.508 576.977 268.156C577.342 267.798 577.624 267.354 577.822 266.824L580.089 267.46C579.851 268.229 579.45 268.905 578.886 269.489C578.323 270.065 577.627 270.516 576.798 270.841C575.97 271.159 575.038 271.318 574.004 271.318Z" fill="#FDFDFD"/>
<path d="M218.639 717.727C218.52 716.72 218.036 715.938 217.188 715.381C216.339 714.824 215.298 714.545 214.066 714.545C213.164 714.545 212.375 714.691 211.699 714.983C211.03 715.275 210.506 715.676 210.128 716.186C209.757 716.696 209.571 717.277 209.571 717.926C209.571 718.47 209.7 718.937 209.959 719.328C210.224 719.713 210.562 720.034 210.973 720.293C211.384 720.545 211.815 720.753 212.266 720.919C212.717 721.078 213.131 721.207 213.509 721.307L215.577 721.864C216.107 722.003 216.697 722.195 217.347 722.44C218.003 722.686 218.629 723.02 219.226 723.445C219.829 723.862 220.326 724.399 220.718 725.055C221.109 725.712 221.304 726.517 221.304 727.472C221.304 728.572 221.016 729.566 220.439 730.455C219.869 731.343 219.034 732.049 217.933 732.572C216.84 733.096 215.511 733.358 213.946 733.358C212.488 733.358 211.225 733.123 210.158 732.652C209.097 732.181 208.262 731.525 207.652 730.683C207.049 729.841 206.708 728.864 206.628 727.75H209.173C209.24 728.519 209.498 729.155 209.949 729.659C210.406 730.156 210.983 730.527 211.679 730.773C212.382 731.011 213.137 731.131 213.946 731.131C214.887 731.131 215.733 730.978 216.482 730.673C217.231 730.362 217.824 729.931 218.262 729.381C218.699 728.824 218.918 728.174 218.918 727.432C218.918 726.756 218.729 726.205 218.351 725.781C217.973 725.357 217.476 725.012 216.86 724.747C216.243 724.482 215.577 724.25 214.861 724.051L212.355 723.335C210.764 722.878 209.505 722.225 208.577 721.376C207.649 720.528 207.185 719.418 207.185 718.045C207.185 716.905 207.493 715.911 208.11 715.062C208.733 714.207 209.568 713.545 210.615 713.074C211.669 712.597 212.846 712.358 214.145 712.358C215.458 712.358 216.624 712.593 217.645 713.064C218.666 713.528 219.475 714.164 220.071 714.973C220.674 715.782 220.993 716.7 221.026 717.727H218.639ZM231.682 717.727V719.716H223.768V717.727H231.682ZM226.074 714.068H228.421V728.625C228.421 729.288 228.517 729.785 228.709 730.116C228.908 730.441 229.16 730.66 229.465 730.773C229.777 730.879 230.105 730.932 230.449 730.932C230.708 730.932 230.92 730.919 231.086 730.892C231.251 730.859 231.384 730.832 231.483 730.812L231.961 732.92C231.802 732.98 231.58 733.04 231.295 733.099C231.01 733.166 230.648 733.199 230.211 733.199C229.548 733.199 228.898 733.056 228.262 732.771C227.632 732.486 227.108 732.052 226.691 731.469C226.28 730.885 226.074 730.15 226.074 729.261V714.068ZM241.452 733.318C239.98 733.318 238.711 732.993 237.643 732.344C236.583 731.688 235.764 730.773 235.187 729.599C234.617 728.42 234.332 727.047 234.332 725.483C234.332 723.919 234.617 722.54 235.187 721.347C235.764 720.147 236.566 719.212 237.594 718.543C238.628 717.866 239.834 717.528 241.213 717.528C242.008 717.528 242.794 717.661 243.569 717.926C244.345 718.191 245.051 718.622 245.687 719.219C246.324 719.809 246.831 720.591 247.209 721.565C247.586 722.54 247.775 723.74 247.775 725.165V726.159H236.003V724.131H245.389C245.389 723.269 245.217 722.5 244.872 721.824C244.534 721.148 244.05 720.614 243.42 720.223C242.797 719.832 242.061 719.636 241.213 719.636C240.278 719.636 239.47 719.868 238.787 720.332C238.111 720.79 237.59 721.386 237.226 722.122C236.861 722.858 236.679 723.647 236.679 724.489V725.841C236.679 726.994 236.878 727.972 237.275 728.774C237.68 729.57 238.24 730.176 238.956 730.594C239.672 731.005 240.504 731.21 241.452 731.21C242.068 731.21 242.625 731.124 243.122 730.952C243.626 730.773 244.06 730.508 244.425 730.156C244.789 729.798 245.071 729.354 245.27 728.824L247.537 729.46C247.298 730.229 246.897 730.905 246.334 731.489C245.77 732.065 245.074 732.516 244.246 732.841C243.417 733.159 242.486 733.318 241.452 733.318ZM251.345 738.727V717.727H253.612V720.153H253.89C254.063 719.888 254.301 719.55 254.606 719.139C254.918 718.722 255.362 718.35 255.939 718.026C256.522 717.694 257.311 717.528 258.305 717.528C259.591 717.528 260.725 717.85 261.706 718.493C262.687 719.136 263.452 720.047 264.003 721.227C264.553 722.407 264.828 723.799 264.828 725.403C264.828 727.021 264.553 728.423 264.003 729.609C263.452 730.789 262.69 731.704 261.716 732.354C260.741 732.997 259.618 733.318 258.345 733.318C257.364 733.318 256.578 733.156 255.988 732.831C255.398 732.5 254.944 732.125 254.626 731.707C254.308 731.283 254.063 730.932 253.89 730.653H253.692V738.727H251.345ZM253.652 725.364C253.652 726.517 253.821 727.535 254.159 728.416C254.497 729.291 254.991 729.977 255.64 730.474C256.29 730.965 257.086 731.21 258.027 731.21C259.008 731.21 259.827 730.952 260.483 730.435C261.146 729.911 261.643 729.208 261.974 728.327C262.312 727.438 262.481 726.451 262.481 725.364C262.481 724.29 262.316 723.322 261.984 722.46C261.659 721.592 261.166 720.906 260.503 720.402C259.846 719.892 259.021 719.636 258.027 719.636C257.072 719.636 256.27 719.878 255.621 720.362C254.971 720.839 254.48 721.509 254.149 722.371C253.818 723.226 253.652 724.223 253.652 725.364ZM283.123 733.278C281.811 733.278 280.641 733.053 279.613 732.602C278.593 732.152 277.781 731.525 277.177 730.723C276.581 729.914 276.256 728.976 276.203 727.909H278.709C278.762 728.565 278.987 729.132 279.385 729.609C279.782 730.08 280.303 730.445 280.946 730.703C281.589 730.962 282.301 731.091 283.084 731.091C283.959 731.091 284.734 730.938 285.41 730.634C286.086 730.329 286.617 729.904 287.001 729.361C287.386 728.817 287.578 728.188 287.578 727.472C287.578 726.723 287.392 726.063 287.021 725.493C286.65 724.916 286.106 724.465 285.39 724.141C284.675 723.816 283.8 723.653 282.765 723.653H281.135V721.466H282.765C283.574 721.466 284.283 721.32 284.893 721.028C285.51 720.737 285.99 720.326 286.335 719.795C286.686 719.265 286.862 718.642 286.862 717.926C286.862 717.237 286.71 716.637 286.405 716.126C286.1 715.616 285.669 715.218 285.112 714.933C284.562 714.648 283.912 714.506 283.163 714.506C282.461 714.506 281.798 714.635 281.175 714.893C280.558 715.145 280.054 715.513 279.663 715.997C279.272 716.474 279.06 717.051 279.027 717.727H276.64C276.68 716.66 277.002 715.725 277.605 714.923C278.208 714.115 278.997 713.485 279.971 713.034C280.952 712.583 282.03 712.358 283.203 712.358C284.462 712.358 285.543 712.613 286.444 713.124C287.346 713.627 288.039 714.294 288.523 715.122C289.006 715.951 289.248 716.846 289.248 717.807C289.248 718.954 288.947 719.931 288.344 720.74C287.747 721.549 286.935 722.109 285.907 722.42V722.58C287.193 722.792 288.198 723.339 288.92 724.22C289.643 725.095 290.004 726.179 290.004 727.472C290.004 728.579 289.702 729.573 289.099 730.455C288.503 731.33 287.687 732.019 286.653 732.523C285.619 733.027 284.443 733.278 283.123 733.278Z" fill="#FDFDFD"/>
<path d="M723.808 733V712.636H736.097V714.824H726.274V721.705H735.461V723.892H726.274V730.812H736.257V733H723.808ZM742.57 723.812V733H740.224V717.727H742.491V720.114H742.69C743.048 719.338 743.591 718.715 744.32 718.244C745.05 717.767 745.991 717.528 747.144 717.528C748.178 717.528 749.083 717.741 749.859 718.165C750.634 718.582 751.238 719.219 751.669 720.074C752.099 720.922 752.315 721.996 752.315 723.295V733H749.968V723.455C749.968 722.255 749.657 721.32 749.034 720.651C748.41 719.974 747.555 719.636 746.468 719.636C745.719 719.636 745.05 719.799 744.46 720.124C743.876 720.448 743.416 720.922 743.078 721.545C742.74 722.169 742.57 722.924 742.57 723.812ZM762.37 733.318C761.097 733.318 759.974 732.997 758.999 732.354C758.025 731.704 757.262 730.789 756.712 729.609C756.162 728.423 755.887 727.021 755.887 725.403C755.887 723.799 756.162 722.407 756.712 721.227C757.262 720.047 758.028 719.136 759.009 718.493C759.99 717.85 761.124 717.528 762.41 717.528C763.404 717.528 764.189 717.694 764.766 718.026C765.349 718.35 765.794 718.722 766.099 719.139C766.41 719.55 766.652 719.888 766.824 720.153H767.023V712.636H769.37V733H767.103V730.653H766.824C766.652 730.932 766.407 731.283 766.089 731.707C765.77 732.125 765.316 732.5 764.726 732.831C764.136 733.156 763.351 733.318 762.37 733.318ZM762.688 731.21C763.629 731.21 764.425 730.965 765.074 730.474C765.724 729.977 766.218 729.291 766.556 728.416C766.894 727.535 767.063 726.517 767.063 725.364C767.063 724.223 766.897 723.226 766.566 722.371C766.234 721.509 765.744 720.839 765.094 720.362C764.445 719.878 763.643 719.636 762.688 719.636C761.694 719.636 760.865 719.892 760.202 720.402C759.546 720.906 759.052 721.592 758.721 722.46C758.396 723.322 758.233 724.29 758.233 725.364C758.233 726.451 758.399 727.438 758.731 728.327C759.069 729.208 759.566 729.911 760.222 730.435C760.885 730.952 761.707 731.21 762.688 731.21ZM796.107 719C795.888 718.33 795.6 717.731 795.242 717.2C794.891 716.663 794.47 716.206 793.979 715.828C793.495 715.45 792.945 715.162 792.329 714.963C791.712 714.764 791.036 714.665 790.3 714.665C789.094 714.665 787.997 714.976 787.009 715.599C786.021 716.223 785.236 717.141 784.653 718.354C784.069 719.567 783.778 721.055 783.778 722.818C783.778 724.581 784.073 726.07 784.662 727.283C785.252 728.496 786.051 729.414 787.059 730.037C788.066 730.66 789.2 730.972 790.459 730.972C791.626 730.972 792.653 730.723 793.542 730.226C794.437 729.722 795.133 729.013 795.63 728.098C796.134 727.177 796.385 726.093 796.385 724.847L797.141 725.006H791.016V722.818H798.772V725.006C798.772 726.683 798.414 728.141 797.698 729.381C796.989 730.62 796.008 731.581 794.755 732.264C793.509 732.94 792.077 733.278 790.459 733.278C788.656 733.278 787.072 732.854 785.706 732.006C784.348 731.157 783.287 729.951 782.525 728.386C781.769 726.822 781.391 724.966 781.391 722.818C781.391 721.207 781.607 719.759 782.037 718.473C782.475 717.18 783.091 716.08 783.887 715.172C784.682 714.264 785.624 713.568 786.711 713.084C787.798 712.6 788.994 712.358 790.3 712.358C791.374 712.358 792.375 712.52 793.303 712.845C794.238 713.163 795.07 713.617 795.799 714.207C796.535 714.791 797.148 715.49 797.638 716.305C798.129 717.114 798.467 718.012 798.653 719H796.107ZM808.882 733.318C807.503 733.318 806.293 732.99 805.252 732.334C804.218 731.678 803.41 730.759 802.826 729.58C802.249 728.4 801.961 727.021 801.961 725.443C801.961 723.852 802.249 722.464 802.826 721.277C803.41 720.09 804.218 719.169 805.252 718.513C806.293 717.857 807.503 717.528 808.882 717.528C810.26 717.528 811.467 717.857 812.501 718.513C813.542 719.169 814.35 720.09 814.927 721.277C815.51 722.464 815.802 723.852 815.802 725.443C815.802 727.021 815.51 728.4 814.927 729.58C814.35 730.759 813.542 731.678 812.501 732.334C811.467 732.99 810.26 733.318 808.882 733.318ZM808.882 731.21C809.929 731.21 810.791 730.942 811.467 730.405C812.143 729.868 812.643 729.162 812.968 728.287C813.293 727.412 813.455 726.464 813.455 725.443C813.455 724.422 813.293 723.471 812.968 722.589C812.643 721.708 812.143 720.995 811.467 720.452C810.791 719.908 809.929 719.636 808.882 719.636C807.834 719.636 806.972 719.908 806.296 720.452C805.62 720.995 805.12 721.708 804.795 722.589C804.47 723.471 804.308 724.422 804.308 725.443C804.308 726.464 804.47 727.412 804.795 728.287C805.12 729.162 805.62 729.868 806.296 730.405C806.972 730.942 807.834 731.21 808.882 731.21ZM823.878 733.358C822.911 733.358 822.032 733.176 821.243 732.811C820.455 732.44 819.828 731.906 819.364 731.21C818.9 730.508 818.668 729.659 818.668 728.665C818.668 727.79 818.84 727.08 819.185 726.537C819.53 725.987 819.991 725.556 820.567 725.244C821.144 724.933 821.78 724.701 822.476 724.548C823.179 724.389 823.885 724.263 824.594 724.17C825.522 724.051 826.275 723.962 826.851 723.902C827.435 723.836 827.859 723.726 828.124 723.574C828.396 723.421 828.532 723.156 828.532 722.778V722.699C828.532 721.718 828.263 720.955 827.726 720.412C827.196 719.868 826.391 719.597 825.31 719.597C824.19 719.597 823.312 719.842 822.675 720.332C822.039 720.823 821.591 721.347 821.333 721.903L819.106 721.108C819.503 720.18 820.034 719.457 820.697 718.94C821.366 718.417 822.095 718.052 822.884 717.847C823.68 717.634 824.462 717.528 825.231 717.528C825.721 717.528 826.285 717.588 826.921 717.707C827.564 717.82 828.184 718.055 828.78 718.413C829.384 718.771 829.884 719.312 830.282 720.034C830.68 720.757 830.878 721.724 830.878 722.938V733H828.532V730.932H828.412C828.253 731.263 827.988 731.618 827.617 731.996C827.246 732.374 826.752 732.695 826.135 732.96C825.519 733.225 824.767 733.358 823.878 733.358ZM824.236 731.25C825.164 731.25 825.947 731.068 826.583 730.703C827.226 730.339 827.71 729.868 828.035 729.291C828.366 728.714 828.532 728.108 828.532 727.472V725.324C828.432 725.443 828.214 725.553 827.876 725.652C827.544 725.745 827.16 725.828 826.722 725.901C826.291 725.967 825.87 726.027 825.459 726.08C825.055 726.126 824.727 726.166 824.475 726.199C823.865 726.278 823.295 726.408 822.765 726.587C822.241 726.759 821.817 727.021 821.492 727.372C821.174 727.717 821.015 728.187 821.015 728.784C821.015 729.599 821.316 730.216 821.92 730.634C822.529 731.045 823.302 731.25 824.236 731.25ZM837.508 712.636V733H835.161V712.636H837.508Z" fill="#FDFDFD"/>
<path d="M351.077 487.727C350.958 486.72 350.474 485.938 349.625 485.381C348.777 484.824 347.736 484.545 346.503 484.545C345.602 484.545 344.813 484.691 344.137 484.983C343.467 485.275 342.943 485.676 342.566 486.186C342.194 486.696 342.009 487.277 342.009 487.926C342.009 488.47 342.138 488.937 342.396 489.328C342.662 489.713 343 490.034 343.411 490.293C343.822 490.545 344.253 490.753 344.703 490.919C345.154 491.078 345.568 491.207 345.946 491.307L348.014 491.864C348.545 492.003 349.135 492.195 349.784 492.44C350.441 492.686 351.067 493.02 351.664 493.445C352.267 493.862 352.764 494.399 353.155 495.055C353.546 495.712 353.742 496.517 353.742 497.472C353.742 498.572 353.453 499.566 352.877 500.455C352.307 501.343 351.471 502.049 350.371 502.572C349.277 503.096 347.948 503.358 346.384 503.358C344.925 503.358 343.663 503.123 342.595 502.652C341.535 502.181 340.7 501.525 340.09 500.683C339.486 499.841 339.145 498.864 339.066 497.75H341.611C341.677 498.519 341.936 499.155 342.387 499.659C342.844 500.156 343.421 500.527 344.117 500.773C344.819 501.011 345.575 501.131 346.384 501.131C347.325 501.131 348.17 500.978 348.919 500.673C349.668 500.362 350.262 499.931 350.699 499.381C351.137 498.824 351.355 498.174 351.355 497.432C351.355 496.756 351.166 496.205 350.789 495.781C350.411 495.357 349.914 495.012 349.297 494.747C348.681 494.482 348.014 494.25 347.298 494.051L344.793 493.335C343.202 492.878 341.942 492.225 341.014 491.376C340.086 490.528 339.622 489.418 339.622 488.045C339.622 486.905 339.931 485.911 340.547 485.062C341.17 484.207 342.005 483.545 343.053 483.074C344.107 482.597 345.283 482.358 346.583 482.358C347.895 482.358 349.062 482.593 350.083 483.064C351.103 483.528 351.912 484.164 352.509 484.973C353.112 485.782 353.43 486.7 353.463 487.727H351.077ZM364.12 487.727V489.716H356.205V487.727H364.12ZM358.512 484.068H360.858V498.625C360.858 499.288 360.955 499.785 361.147 500.116C361.346 500.441 361.598 500.66 361.903 500.773C362.214 500.879 362.542 500.932 362.887 500.932C363.145 500.932 363.358 500.919 363.523 500.892C363.689 500.859 363.822 500.832 363.921 500.812L364.398 502.92C364.239 502.98 364.017 503.04 363.732 503.099C363.447 503.166 363.086 503.199 362.648 503.199C361.985 503.199 361.336 503.056 360.699 502.771C360.07 502.486 359.546 502.052 359.128 501.469C358.717 500.885 358.512 500.15 358.512 499.261V484.068ZM373.889 503.318C372.417 503.318 371.148 502.993 370.081 502.344C369.02 501.688 368.202 500.773 367.625 499.599C367.055 498.42 366.77 497.047 366.77 495.483C366.77 493.919 367.055 492.54 367.625 491.347C368.202 490.147 369.004 489.212 370.031 488.543C371.065 487.866 372.272 487.528 373.65 487.528C374.446 487.528 375.231 487.661 376.007 487.926C376.782 488.191 377.488 488.622 378.125 489.219C378.761 489.809 379.268 490.591 379.646 491.565C380.024 492.54 380.213 493.74 380.213 495.165V496.159H368.44V494.131H377.827C377.827 493.269 377.654 492.5 377.309 491.824C376.971 491.148 376.488 490.614 375.858 490.223C375.235 489.832 374.499 489.636 373.65 489.636C372.716 489.636 371.907 489.868 371.224 490.332C370.548 490.79 370.028 491.386 369.663 492.122C369.299 492.858 369.116 493.647 369.116 494.489V495.841C369.116 496.994 369.315 497.972 369.713 498.774C370.117 499.57 370.677 500.176 371.393 500.594C372.109 501.005 372.941 501.21 373.889 501.21C374.506 501.21 375.062 501.124 375.559 500.952C376.063 500.773 376.497 500.508 376.862 500.156C377.227 499.798 377.508 499.354 377.707 498.824L379.974 499.46C379.736 500.229 379.335 500.905 378.771 501.489C378.208 502.065 377.512 502.516 376.683 502.841C375.854 503.159 374.923 503.318 373.889 503.318ZM383.782 508.727V487.727H386.05V490.153H386.328C386.5 489.888 386.739 489.55 387.044 489.139C387.355 488.722 387.8 488.35 388.376 488.026C388.96 487.694 389.748 487.528 390.743 487.528C392.029 487.528 393.162 487.85 394.143 488.493C395.124 489.136 395.89 490.047 396.44 491.227C396.99 492.407 397.265 493.799 397.265 495.403C397.265 497.021 396.99 498.423 396.44 499.609C395.89 500.789 395.128 501.704 394.153 502.354C393.179 502.997 392.055 503.318 390.782 503.318C389.801 503.318 389.016 503.156 388.426 502.831C387.836 502.5 387.382 502.125 387.064 501.707C386.746 501.283 386.5 500.932 386.328 500.653H386.129V508.727H383.782ZM386.089 495.364C386.089 496.517 386.258 497.535 386.596 498.416C386.934 499.291 387.428 499.977 388.078 500.474C388.728 500.965 389.523 501.21 390.464 501.21C391.445 501.21 392.264 500.952 392.92 500.435C393.583 499.911 394.08 499.208 394.412 498.327C394.75 497.438 394.919 496.451 394.919 495.364C394.919 494.29 394.753 493.322 394.422 492.46C394.097 491.592 393.603 490.906 392.94 490.402C392.284 489.892 391.459 489.636 390.464 489.636C389.51 489.636 388.708 489.878 388.058 490.362C387.408 490.839 386.918 491.509 386.586 492.371C386.255 493.226 386.089 494.223 386.089 495.364ZM408.68 503V501.21L415.402 493.852C416.191 492.991 416.84 492.241 417.351 491.605C417.861 490.962 418.239 490.359 418.484 489.795C418.736 489.225 418.862 488.629 418.862 488.006C418.862 487.29 418.69 486.67 418.345 486.146C418.007 485.623 417.543 485.218 416.953 484.933C416.363 484.648 415.7 484.506 414.964 484.506C414.182 484.506 413.499 484.668 412.916 484.993C412.339 485.311 411.892 485.759 411.574 486.335C411.262 486.912 411.106 487.588 411.106 488.364H408.76C408.76 487.17 409.035 486.123 409.585 485.222C410.135 484.32 410.884 483.617 411.832 483.114C412.787 482.61 413.857 482.358 415.044 482.358C416.237 482.358 417.294 482.61 418.216 483.114C419.137 483.617 419.86 484.297 420.383 485.152C420.907 486.007 421.169 486.958 421.169 488.006C421.169 488.755 421.033 489.487 420.761 490.203C420.496 490.912 420.032 491.705 419.369 492.58C418.713 493.448 417.801 494.509 416.635 495.761L412.061 500.653V500.812H421.527V503H408.68Z" fill="#FDFDFD"/>
<path d="M421.569 418.749C421.817 419.539 422.659 419.978 423.449 419.73L436.329 415.685C437.119 415.436 437.559 414.595 437.311 413.804C437.062 413.014 436.22 412.574 435.43 412.823L423.981 416.419L420.385 404.97C420.137 404.18 419.295 403.74 418.505 403.989C417.715 404.237 417.275 405.079 417.523 405.869L421.569 418.749ZM465.67 333.306L421.67 417.605L424.33 418.993L468.33 334.694L465.67 333.306Z" fill="#1B2B4C"/>
<path d="M644.061 724.061C644.646 723.475 644.646 722.525 644.061 721.939L634.515 712.393C633.929 711.808 632.979 711.808 632.393 712.393C631.808 712.979 631.808 713.929 632.393 714.515L640.879 723L632.393 731.485C631.808 732.071 631.808 733.021 632.393 733.607C632.979 734.192 633.929 734.192 634.515 733.607L644.061 724.061ZM362 724.5H643V721.5H362V724.5Z" fill="#1B2B4C"/>
<path d="M300.562 643.727C300.798 644.521 301.633 644.973 302.427 644.737L315.368 640.891C316.162 640.655 316.614 639.819 316.378 639.025C316.142 638.231 315.307 637.779 314.513 638.015L303.01 641.434L299.591 629.931C299.355 629.137 298.52 628.685 297.726 628.921C296.932 629.157 296.48 629.992 296.716 630.786L300.562 643.727ZM337.681 574.286L300.681 642.585L303.319 644.014L340.319 575.714L337.681 574.286Z" fill="#1B2B4C"/>
</svg>
