<svg width="48" height="46" viewBox="0 0 48 46" fill="none" xmlns="http://www.w3.org/2000/svg">
<path d="M23.9995 0C10.7459 0 -0.000488281 10.2816 -0.000488281 22.9618C-0.000488281 35.6421 10.7459 45.9237 23.9995 45.9237C37.2531 45.9237 47.9995 35.6421 47.9995 22.9618C47.9995 10.2816 37.2531 0 23.9995 0ZM35.5334 17.3085C35.5495 17.5494 35.5495 17.8006 35.5495 18.0466C35.5495 25.5707 29.5602 34.2378 18.6156 34.2378C15.2406 34.2378 12.112 33.2998 9.47629 31.6853C9.95843 31.7365 10.4191 31.757 10.912 31.757C13.6977 31.757 16.2584 30.855 18.2995 29.3276C15.6852 29.2764 13.4888 27.6362 12.7388 25.381C13.6549 25.5092 14.4799 25.5092 15.4227 25.2785C14.0766 25.0169 12.8667 24.3174 11.9985 23.299C11.1303 22.2806 10.6575 21.006 10.6602 19.6918V19.6201C11.4477 20.0455 12.3745 20.3069 13.3441 20.3428C12.529 19.823 11.8605 19.1189 11.398 18.2927C10.9354 17.4666 10.693 16.5441 10.6924 15.6069C10.6924 14.5459 10.9816 13.5772 11.5013 12.7366C12.9954 14.4964 14.8598 15.9356 16.9734 16.9608C19.087 17.986 21.4024 18.5743 23.7691 18.6873C22.9281 14.8176 25.9495 11.6859 29.5816 11.6859C31.2959 11.6859 32.8388 12.3727 33.9263 13.4798C35.2709 13.2389 36.5566 12.7571 37.7031 12.1113C37.2584 13.4286 36.3263 14.5408 35.0888 15.243C36.2888 15.12 37.4459 14.8022 38.5173 14.3563C37.7084 15.4941 36.6959 16.5038 35.5334 17.3085Z" fill="#6DB7C0"/>
</svg>
