<svg width="48" height="46" viewBox="0 0 48 46" fill="none" xmlns="http://www.w3.org/2000/svg">
<path d="M15.0155 12.1559C15.4899 9.79767 16.1365 7.67984 16.9073 5.88886C17.7572 3.9088 18.7369 2.39336 19.7534 1.39658C20.7642 0.402496 21.7214 0 22.5882 0C23.455 0 24.4122 0.402496 25.423 1.39658C26.4395 2.39607 27.4193 3.9088 28.2692 5.88886C29.04 7.67984 29.6866 9.79767 30.1609 12.1559H15.0155ZM14.2955 4.86237C14.8982 3.40873 15.6822 2.03008 16.6306 0.756368C13.5278 1.57134 10.6422 3.00956 8.16599 4.9752C5.68979 6.94085 3.67986 9.38878 2.27013 12.1559H12.144C12.6579 9.43569 13.3892 6.96399 14.2955 4.86237ZM30.8809 4.86237C30.278 3.40969 29.494 2.03196 28.5459 0.759069C31.6484 1.57374 34.5338 3.01154 37.01 4.97671C39.4862 6.94188 41.4963 9.38929 42.9063 12.1559H33.0324C32.5186 9.43569 31.7873 6.96399 30.8809 4.86237ZM33.4588 14.8572H44.0527C44.7134 16.7806 45.0974 18.8228 45.1651 20.9433C43.0859 19.5996 40.6295 18.8913 38.1204 18.9119C36.5957 18.9119 35.1614 19.155 33.8456 19.6007C33.789 18.0149 33.66 16.4322 33.4588 14.8572ZM31.056 20.9568C31.0329 18.9171 30.8849 16.8804 30.6127 14.8572H14.5638C14.2634 17.0968 14.1144 19.3526 14.1176 21.6105C14.1176 23.9742 14.2758 26.2406 14.5638 28.3638H25.807C26.575 25.3167 28.4329 22.6667 31.056 20.9568ZM25.4202 31.0651H15.0155C15.4899 33.4234 16.1365 35.5412 16.9073 37.3322C17.7572 39.3122 18.7369 40.8277 19.7534 41.8244C20.7642 42.8185 21.7214 43.221 22.5882 43.221C23.455 43.221 24.4122 42.8185 25.423 41.8244C26.1402 41.1221 26.8405 40.1577 27.4899 38.9529C26.1035 36.4299 25.4118 33.9015 25.4118 31.5567L25.4202 31.0651ZM2.27013 31.0651C3.68048 33.832 5.69099 36.2796 8.16768 38.2448C10.6444 40.21 13.5304 41.6476 16.6334 42.462C15.6845 41.1901 14.8995 39.8133 14.2955 38.3614C13.392 36.2543 12.6579 33.7853 12.144 31.0651H2.27013ZM11.7176 28.3638H1.12378C0.376554 26.1841 -0.00279124 23.9044 1.54609e-05 21.6105C1.54609e-05 19.2523 0.395309 16.9832 1.12378 14.8572H11.7176C11.4409 17.0048 11.2941 19.2712 11.2941 21.6105C11.2941 23.9499 11.4409 26.2163 11.7176 28.3638ZM48 31.5567C48 26.065 43.8635 21.6132 38.1204 21.6132C32.3802 21.6132 28.2353 26.065 28.2353 31.5567C28.2353 35.6736 31.008 41.0924 37.4287 45.7008C37.8381 45.998 38.4028 45.998 38.8122 45.7008C45.2386 41.0924 48 35.6736 48 31.5567ZM42.3529 31.0651C42.3529 32.1398 41.9067 33.1704 41.1124 33.9303C40.3181 34.6902 39.2409 35.1171 38.1176 35.1171C36.9944 35.1171 35.9171 34.6902 35.1228 33.9303C34.3285 33.1704 33.8823 32.1398 33.8823 31.0651C33.8823 29.9905 34.3285 28.9598 35.1228 28.1999C35.9171 27.44 36.9944 27.0131 38.1176 27.0131C39.2409 27.0131 40.3181 27.44 41.1124 28.1999C41.9067 28.9598 42.3529 29.9905 42.3529 31.0651Z" fill="#E5AA42"/>
</svg>
