<svg width="52" height="32" viewBox="0 0 52 32" fill="none" xmlns="http://www.w3.org/2000/svg">
<path d="M3.90719 30.4808C4.23193 30.8957 4.79332 31.1465 5.39432 31.1465H17.6872C20.6132 31.1465 22.9933 29.1947 22.9933 26.7954V16.6428C22.9933 14.2435 20.6132 12.2918 17.6872 12.2918H14.1756C15.8182 8.391 17.2208 6.52293 21.8879 4.92811C22.6668 4.66182 23.1074 3.98203 22.9415 3.30355C22.7758 2.62638 22.0502 2.1392 21.2073 2.1392H21.2037C11.4672 2.15342 5.87435 5.35437 1.90855 13.1784C0.642689 15.6359 0.000114441 18.2659 0.000114441 20.9939C0.000114441 25.1893 1.54773 27.4739 3.90719 30.4808ZM31.9249 31.1465H44.2178C47.1438 31.1465 49.5239 29.1947 49.5239 26.7954V16.6428C49.5239 14.2435 47.1438 12.2918 44.2178 12.2918H40.7062C42.3488 8.391 43.7514 6.52293 48.4185 4.92811C49.1974 4.66182 49.638 3.98203 49.4721 3.30355C49.3064 2.62638 48.5809 2.1392 47.7379 2.1392H47.7343C37.9978 2.15342 32.405 5.35437 28.4392 13.1784C27.1733 15.6359 26.5307 18.2659 26.5307 20.9939C26.5307 25.1893 28.0783 27.4739 30.4378 30.4808C30.7625 30.8957 31.3239 31.1465 31.9249 31.1465Z" fill="#D4D6DB"/>
<path d="M6.38326 28.3421C6.708 28.757 7.26939 29.0078 7.8704 29.0078H20.1633C23.0892 29.0078 25.4694 27.0561 25.4694 24.6567V14.5042C25.4694 12.1048 23.0892 10.1531 20.1633 10.1531H16.6517C18.2943 6.25233 19.6969 4.38425 24.3639 2.78943C25.1429 2.52315 25.5835 1.84336 25.4176 1.16488C25.2518 0.487707 24.5263 0.000530243 23.6833 0.000530243H23.6798C13.9432 0.0147438 8.35042 3.2157 4.38462 11.0397C3.11876 13.4972 2.47619 16.1273 2.47619 18.8553C2.47619 23.0506 4.02381 25.3352 6.38326 28.3421ZM34.401 29.0078H46.6939C49.6199 29.0078 52 27.0561 52 24.6567V14.5042C52 12.1048 49.6199 10.1531 46.6939 10.1531H43.1823C44.8249 6.25233 46.2275 4.38425 50.8946 2.78943C51.6735 2.52315 52.1141 1.84336 51.9482 1.16488C51.7824 0.487707 51.0569 0.000530243 50.214 0.000530243H50.2104C40.4739 0.0147438 34.881 3.2157 30.9152 11.0397C29.6494 13.4972 29.0068 16.1273 29.0068 18.8553C29.0068 23.0506 30.5544 25.3352 32.9139 28.3421C33.2386 28.757 33.8 29.0078 34.401 29.0078Z" fill="#E5AA42"/>
</svg>
